<?xml version="1.0" encoding="UTF-8" standalone="no"?>
<svg
   viewBox="0 0 128 128"
   version="1.1"
   id="svg5"
   sodipodi:docname="docker-alt.svg"
   inkscape:export-filename="angularmaterial-orig.png"
   inkscape:export-xdpi="96"
   inkscape:export-ydpi="96"
   xml:space="preserve"
   inkscape:version="1.4.2 (ebf0e940d0, 2025-05-08)"
   xmlns:inkscape="http://www.inkscape.org/namespaces/inkscape"
   xmlns:sodipodi="http://sodipodi.sourceforge.net/DTD/sodipodi-0.dtd"
   xmlns="http://www.w3.org/2000/svg"
   xmlns:svg="http://www.w3.org/2000/svg"><defs
     id="defs5"><linearGradient
       id="swatch6"
       inkscape:swatch="solid"><stop
         style="stop-color:#00ff00;stop-opacity:1;"
         offset="0"
         id="stop6" /></linearGradient><clipPath
       id="_clipPath_2GFXlhoLK0PQwPMcNgecx9cHDe99PPCk"><rect
         width="179"
         height="195"
         id="rect1"
         x="0"
         y="0" /></clipPath></defs><sodipodi:namedview
     id="namedview5"
     pagecolor="#ffffff"
     bordercolor="#000000"
     borderopacity="0.25"
     inkscape:showpageshadow="2"
     inkscape:pageopacity="0.0"
     inkscape:pagecheckerboard="0"
     inkscape:deskcolor="#d1d1d1"
     inkscape:zoom="4.4415145"
     inkscape:cx="84.43066"
     inkscape:cy="71.709774"
     inkscape:window-width="1920"
     inkscape:window-height="1080"
     inkscape:window-x="0"
     inkscape:window-y="0"
     inkscape:window-maximized="1"
     inkscape:current-layer="svg5" /><style
     type="text/css"
     id="style1">
	.st0{fill:#FF4438;}
</style><g
     id="g1"
     transform="matrix(0.22110692,0,0,0.22110692,89.065542,40.257289)">
</g><g
     id="g2"
     transform="matrix(0.22110692,0,0,0.22110692,89.065542,40.257289)">
</g><g
     id="g3"
     transform="matrix(0.22110692,0,0,0.22110692,89.065542,40.257289)">
</g><g
     id="g4"
     transform="matrix(0.22110692,0,0,0.22110692,89.065542,40.257289)">
</g><g
     id="g5"
     transform="matrix(0.22110692,0,0,0.22110692,89.065542,40.257289)">
</g><g
     id="g6"
     transform="matrix(0.22110692,0,0,0.22110692,89.065542,40.257289)">
</g><g
     id="g7"
     transform="matrix(1.0769585,0,0,1.0769585,-11.155137,-7.6522235)"><path
       fill-rule="evenodd"
       clip-rule="evenodd"
       fill="#3a4d54"
       d="m 73.8,50.8 h 11.3 v 11.5 h 5.7 c 2.6,0 5.3,-0.5 7.8,-1.3 1.2,-0.4 2.6,-1 3.8,-1.7 -1.6,-2.1 -2.4,-4.7 -2.6,-7.3 -0.3,-3.5 0.4,-8.1 2.8,-10.8 l 1.2,-1.4 1.4,1.1 c 3.6,2.9 6.5,6.8 7.1,11.4 4.3,-1.3 9.3,-1 13.1,1.2 l 1.5,0.9 -0.8,1.6 c -3.2,6.2 -9.9,8.2 -16.4,7.8 -9.8,24.3 -31,35.8 -56.8,35.8 -13.3,0 -25.5,-5 -32.5,-16.8 l -0.1,-0.2 -1,-2.1 C 16.9,75.3 16.2,69.6 16.7,63.9 l 0.2,-1.7 h 9.6 V 50.8 H 37.8 V 39.6 H 60.3 V 28.3 h 13.5 z"
       id="path1" /><path
       fill="#00aada"
       d="m 110.4,55.1 c 0.8,-5.9 -3.6,-10.5 -6.4,-12.7 -3.1,3.6 -3.6,13.2 1.3,17.2 -2.8,2.4 -8.5,4.7 -14.5,4.7 H 18.6 c -0.6,6.2 0.5,11.9 3,16.8 l 0.8,1.5 c 0.5,0.9 1.1,1.7 1.7,2.6 3,0.2 5.7,0.3 8.2,0.2 4.9,-0.1 8.9,-0.7 12,-1.7 0.5,-0.2 0.9,0.1 1.1,0.5 0.2,0.5 -0.1,0.9 -0.5,1.1 -0.4,0.1 -0.8,0.3 -1.3,0.4 -2.4,0.7 -5,1.1 -8.3,1.3 h -0.6 c -1.3,0.1 -2.7,0.1 -4.2,0.1 -1.6,0 -3.1,0 -4.9,-0.1 6,6.8 15.4,10.8 27.2,10.8 25,0 46.2,-11.1 55.5,-35.9 6.7,0.7 13.1,-1 16,-6.7 -4.5,-2.7 -10.5,-1.8 -13.9,-0.1 z"
       id="path2" /><path
       fill="#28b8eb"
       d="m 110.4,55.1 c 0.8,-5.9 -3.6,-10.5 -6.4,-12.7 -3.1,3.6 -3.6,13.2 1.3,17.2 -2.8,2.4 -8.5,4.7 -14.5,4.7 h -68 c -0.3,9.5 3.2,16.7 9.5,21 4.9,-0.1 8.9,-0.7 12,-1.7 0.5,-0.2 0.9,0.1 1.1,0.5 0.2,0.5 -0.1,0.9 -0.5,1.1 -0.4,0.1 -0.8,0.3 -1.3,0.4 -2.4,0.7 -5.2,1.2 -8.5,1.4 L 35,86.9 c 8.5,4.4 20.8,4.3 35,-1.1 15.8,-6.1 30.6,-17.7 40.9,-30.9 -0.2,0.1 -0.4,0.1 -0.5,0.2 z"
       id="path3" /><path
       fill="#028bb8"
       d="m 18.7,71.8 c 0.4,3.3 1.4,6.4 2.9,9.3 l 0.8,1.5 c 0.5,0.9 1.1,1.7 1.7,2.6 3,0.2 5.7,0.3 8.2,0.2 4.9,-0.1 8.9,-0.7 12,-1.7 0.5,-0.2 0.9,0.1 1.1,0.5 0.2,0.5 -0.1,0.9 -0.5,1.1 -0.4,0.1 -0.8,0.3 -1.3,0.4 -2.4,0.7 -5.2,1.2 -8.5,1.4 h -0.4 c -1.3,0.1 -2.7,0.1 -4.1,0.1 -1.6,0 -3.2,0 -4.9,-0.1 6,6.8 15.5,10.8 27.3,10.8 21.4,0 40,-8.1 50.8,-26 H 18.7 Z"
       id="path4" /><path
       fill="#019bc6"
       d="m 23.5,71.8 c 1.3,5.8 4.3,10.4 8.8,13.5 4.9,-0.1 8.9,-0.7 12,-1.7 0.5,-0.2 0.9,0.1 1.1,0.5 0.2,0.5 -0.1,0.9 -0.5,1.1 -0.4,0.1 -0.8,0.3 -1.3,0.4 -2.4,0.7 -5.2,1.2 -8.6,1.4 8.5,4.4 20.8,4.3 34.9,-1.1 8.5,-3.3 16.8,-8.2 24.2,-14.1 z"
       id="path5" /><path
       fill-rule="evenodd"
       clip-rule="evenodd"
       fill="#00acd3"
       d="m 28.4,52.7 h 9.8 v 9.8 h -9.8 z m 0.8,0.8 H 30 v 8.1 h -0.8 z m 1.4,0 h 0.8 v 8.1 h -0.8 z m 1.5,0 h 0.8 v 8.1 h -0.8 z m 1.5,0 h 0.8 v 8.1 h -0.8 z m 1.5,0 h 0.8 v 8.1 h -0.8 z m 1.5,0 h 0.8 v 8.1 h -0.8 z m 3,-12 h 9.8 v 9.8 h -9.8 z m 0.9,0.8 h 0.8 v 8.1 h -0.8 z m 1.4,0 h 0.8 v 8.1 h -0.8 z m 1.5,0 h 0.8 v 8.1 h -0.8 z m 1.5,0 h 0.8 v 8.1 h -0.8 z m 1.4,0 h 0.8 v 8.1 h -0.8 z m 1.5,0 h 0.8 v 8.1 h -0.8 z"
       id="path6" /><path
       fill-rule="evenodd"
       clip-rule="evenodd"
       fill="#23c2ee"
       d="m 39.6,52.7 h 9.8 v 9.8 h -9.8 z m 0.9,0.8 h 0.8 v 8.1 h -0.8 z m 1.4,0 h 0.8 v 8.1 h -0.8 z m 1.5,0 h 0.8 v 8.1 h -0.8 z m 1.5,0 h 0.8 v 8.1 h -0.8 z m 1.4,0 h 0.8 v 8.1 h -0.8 z m 1.5,0 h 0.8 v 8.1 h -0.8 z"
       id="path7" /><path
       fill-rule="evenodd"
       clip-rule="evenodd"
       fill="#00acd3"
       d="m 50.9,52.7 h 9.8 v 9.8 h -9.8 z m 0.8,0.8 h 0.8 v 8.1 h -0.8 z m 1.5,0 H 54 v 8.1 h -0.8 z m 1.5,0 h 0.8 v 8.1 h -0.8 z m 1.4,0 h 0.8 v 8.1 h -0.8 z m 1.5,0 h 0.8 v 8.1 h -0.8 z m 1.5,0 h 0.8 v 8.1 h -0.8 z"
       id="path8" /><path
       fill-rule="evenodd"
       clip-rule="evenodd"
       fill="#23c2ee"
       d="m 50.9,41.5 h 9.8 v 9.8 h -9.8 z m 0.8,0.8 h 0.8 v 8.1 h -0.8 z m 1.5,0 H 54 v 8.1 h -0.8 z m 1.5,0 h 0.8 v 8.1 h -0.8 z m 1.4,0 h 0.8 v 8.1 h -0.8 z m 1.5,0 h 0.8 v 8.1 h -0.8 z m 1.5,0 h 0.8 v 8.1 h -0.8 z m 3.1,10.4 H 72 v 9.8 h -9.8 z m 0.8,0.8 h 0.8 v 8.1 H 63 Z m 1.5,0 h 0.8 v 8.1 h -0.8 z m 1.4,0 h 0.8 v 8.1 h -0.8 z m 1.5,0 h 0.8 v 8.1 h -0.8 z m 1.5,0 h 0.8 v 8.1 h -0.8 z m 1.5,0 h 0.8 v 8.1 h -0.8 z"
       id="path9" /><path
       fill-rule="evenodd"
       clip-rule="evenodd"
       fill="#00acd3"
       d="M 62.2,41.5 H 72 v 9.8 h -9.8 z m 0.8,0.8 h 0.8 v 8.1 H 63 Z m 1.5,0 h 0.8 v 8.1 h -0.8 z m 1.4,0 h 0.8 v 8.1 h -0.8 z m 1.5,0 h 0.8 v 8.1 h -0.8 z m 1.5,0 h 0.8 v 8.1 h -0.8 z m 1.5,0 h 0.8 v 8.1 h -0.8 z"
       id="path10" /><path
       fill-rule="evenodd"
       clip-rule="evenodd"
       fill="#23c2ee"
       d="M 62.2,30.2 H 72 V 40 H 62.2 Z M 63,31 h 0.8 v 8.1 H 63 Z m 1.5,0 h 0.8 v 8.1 h -0.8 z m 1.4,0 h 0.8 v 8.1 h -0.8 z m 1.5,0 h 0.8 v 8.1 h -0.8 z m 1.5,0 h 0.8 v 8.1 h -0.8 z m 1.5,0 h 0.8 v 8.1 h -0.8 z"
       id="path11" /><path
       fill-rule="evenodd"
       clip-rule="evenodd"
       fill="#00acd3"
       d="m 73.5,52.7 h 9.8 v 9.8 h -9.8 z m 0.8,0.8 h 0.8 v 8.1 h -0.8 z m 1.4,0 h 0.8 v 8.1 h -0.8 z m 1.5,0 H 78 v 8.1 h -0.8 z m 1.5,0 h 0.8 v 8.1 h -0.8 z m 1.5,0 H 81 v 8.1 h -0.8 z m 1.5,0 h 0.8 v 8.1 h -0.8 z"
       id="path12" /><path
       fill-rule="evenodd"
       clip-rule="evenodd"
       fill="#d4eef1"
       d="m 48.8,78.3 c 1.5,0 2.7,1.2 2.7,2.7 0,1.5 -1.2,2.7 -2.7,2.7 -1.5,0 -2.7,-1.2 -2.7,-2.7 0,-1.5 1.2,-2.7 2.7,-2.7"
       id="path13" /><path
       fill-rule="evenodd"
       clip-rule="evenodd"
       fill="#3a4d54"
       d="m 48.8,79.1 c 0.2,0 0.5,0 0.7,0.1 -0.2,0.1 -0.4,0.4 -0.4,0.7 0,0.4 0.4,0.8 0.8,0.8 0.3,0 0.6,-0.2 0.7,-0.4 0.1,0.2 0.1,0.5 0.1,0.7 0,1.1 -0.9,1.9 -1.9,1.9 -1.1,0 -1.9,-0.9 -1.9,-1.9 0,-1 0.8,-1.9 1.9,-1.9 M 1.1,72.8 h 125.4 c -2.7,-0.7 -8.6,-1.6 -7.7,-5.2 -5,5.7 -16.9,4 -20,1.2 -3.4,4.9 -23,3 -24.3,-0.8 -4.2,5 -17.3,5 -21.5,0 -1.4,3.8 -21,5.7 -24.3,0.8 -3,2.8 -15,4.5 -20,-1.2 1.1,3.5 -4.9,4.5 -7.6,5.2"
       id="path14" /><path
       fill="#bfdbe0"
       d="M 56,97.8 C 49.3,94.6 45.7,90.3 43.6,85.6 c -2.5,0.7 -5.5,1.2 -8.9,1.4 -1.3,0.1 -2.7,0.1 -4.1,0.1 -1.7,0 -3.4,0 -5.2,-0.1 6,6 13.6,10.7 27.5,10.8 z"
       id="path15" /><path
       fill="#d4eef1"
       d="m 46.1,89.9 c -0.9,-1.3 -1.8,-2.8 -2.5,-4.3 -2.5,0.7 -5.5,1.2 -8.9,1.4 2.3,1.2 5.7,2.4 11.4,2.9 z"
       id="path16" /></g></svg>
