<?xml version="1.0" encoding="UTF-8" standalone="no"?>
<svg
   viewBox="0 0 512 512"
   version="1.1"
   id="svg5"
   sodipodi:docname="html-original.svg"
   inkscape:version="1.4.2 (ebf0e940d0, 2025-05-08)"
   xmlns:inkscape="http://www.inkscape.org/namespaces/inkscape"
   xmlns:sodipodi="http://sodipodi.sourceforge.net/DTD/sodipodi-0.dtd"
   xmlns="http://www.w3.org/2000/svg"
   xmlns:svg="http://www.w3.org/2000/svg">
  <defs
     id="defs5" />
  <sodipodi:namedview
     id="namedview5"
     pagecolor="#ffffff"
     bordercolor="#000000"
     borderopacity="0.25"
     inkscape:showpageshadow="2"
     inkscape:pageopacity="0.0"
     inkscape:pagecheckerboard="0"
     inkscape:deskcolor="#d1d1d1"
     inkscape:zoom="0.78515625"
     inkscape:cx="256"
     inkscape:cy="255.36318"
     inkscape:window-width="1920"
     inkscape:window-height="1080"
     inkscape:window-x="0"
     inkscape:window-y="0"
     inkscape:window-maximized="1"
     inkscape:current-layer="svg5" />
  <title
     id="title1">HTML5 Logo</title>
  <path
     d="m 48.4,0 h 23 V 22.8 H 92.6 V 0 h 23 v 69 h -23 V 46 h -21 V 69 H 48.4 M 146,23 H 125.7 V 0 h 63.7 V 23 H 169 V 69 H 146 M 199.5,0 h 24.1 L 238.4,24.3 253.2,0 h 24.1 v 69 h -23 V 34.8 L 238.2,59.6 222.1,34.8 V 69 H 199.5 M 288.7,0 h 23 v 46.2 h 32.6 V 69 h -55.6"
     id="path1" />
  <path
     fill="#e44d26"
     d="M 47.6,471 14.6,100.6 H 377.4 L 344.4,470.8 195.7,512"
     id="path2" />
  <path
     fill="#f16529"
     d="M 196,480.5 V 131 H 344.3 L 316,447"
     id="path3" />
  <path
     fill="#ebebeb"
     d="m 82,176.3 h 114 v 45.4 h -64.2 l 4.2,46.5 h 60 v 45.3 H 94.4 m 2,22.8 H 142 l 3.2,36.3 50.8,13.6 v 47.4 l -93.2,-26"
     id="path4" />
  <path
     fill="#ffffff"
     d="M 309.6,176.3 H 195.8 v 45.4 h 109.6 m -4.1,46.5 H 195.8 v 45.4 h 56 l -5.3,59 -50.7,13.6 v 47.2 l 93,-25.8"
     id="path5" />
</svg>
