<?xml version="1.0" encoding="UTF-8" standalone="no"?>
<svg
   viewBox="0 0 128 128"
   version="1.1"
   id="svg5"
   sodipodi:docname="redis-original.svg"
   inkscape:export-filename="angularmaterial-orig.png"
   inkscape:export-xdpi="96"
   inkscape:export-ydpi="96"
   xml:space="preserve"
   inkscape:version="1.4.2 (ebf0e940d0, 2025-05-08)"
   xmlns:inkscape="http://www.inkscape.org/namespaces/inkscape"
   xmlns:sodipodi="http://sodipodi.sourceforge.net/DTD/sodipodi-0.dtd"
   xmlns="http://www.w3.org/2000/svg"
   xmlns:svg="http://www.w3.org/2000/svg"><defs
     id="defs5"><linearGradient
       id="swatch6"
       inkscape:swatch="solid"><stop
         style="stop-color:#00ff00;stop-opacity:1;"
         offset="0"
         id="stop6" /></linearGradient><clipPath
       id="_clipPath_2GFXlhoLK0PQwPMcNgecx9cHDe99PPCk"><rect
         width="179"
         height="195"
         id="rect1"
         x="0"
         y="0" /></clipPath></defs><sodipodi:namedview
     id="namedview5"
     pagecolor="#ffffff"
     bordercolor="#000000"
     borderopacity="0.25"
     inkscape:showpageshadow="2"
     inkscape:pageopacity="0.0"
     inkscape:pagecheckerboard="0"
     inkscape:deskcolor="#d1d1d1"
     inkscape:zoom="3.140625"
     inkscape:cx="62.089552"
     inkscape:cy="131.9801"
     inkscape:window-width="1920"
     inkscape:window-height="1080"
     inkscape:window-x="0"
     inkscape:window-y="0"
     inkscape:window-maximized="1"
     inkscape:current-layer="svg5" /><style
     type="text/css"
     id="style1">
	.st0{fill:#FF4438;}
</style><path
     class="st0"
     d="m 103.52261,52.409238 c 1.18438,-2.099598 3.12247,-4.360703 3.82234,-5.060569 3.23015,1.345896 6.24495,4.091524 5.81426,4.79139 -1.23822,2.045759 -3.12247,4.360701 -3.82234,5.060566 -3.23014,-1.345895 -6.24496,-4.037685 -5.81426,-4.791387 z m 22.77254,9.259763 c -0.37684,1.830419 -2.63795,3.876178 -3.60699,4.199195 -0.80753,-1.722745 -1.72274,-2.745628 -2.58412,-2.745628 -1.07672,0 -1.13055,0.753702 -1.13055,1.722747 0,1.722748 1.23822,5.491254 1.23822,9.421269 0,4.306862 -3.01481,7.483187 -7.64469,7.483187 -4.23957,0 -6.58227,-2.779147 -7.62733,-7.219079 -2.7694,4.962726 -6.819221,7.219079 -9.923145,7.219079 -4.852428,0 -5.994492,-3.586673 -5.879412,-7.224534 -1.949861,3.445848 -5.702913,7.224534 -9.302292,7.224534 -3.674298,0 -4.972194,-3.198144 -4.674573,-6.922665 -2.201375,4.100625 -6.183647,6.922665 -10.022609,6.922665 -4.16586,0 -6.227819,-3.30936 -5.560543,-7.411317 -2.802564,3.444676 -8.019599,7.411317 -13.443506,7.411317 -6.18439,0 -8.876394,-3.334859 -9.195467,-7.513743 -2.984888,4.783947 -7.008171,7.67525 -11.800508,7.67525 -6.917959,0 -9.392357,-6.151785 -9.752436,-11.183832 -2.563879,3.433361 -5.4464107,6.995447 -8.9824355,10.96848 -0.3768518,0.37685 -0.6998669,0.592202 -1.0767167,0.592202 -1.2382248,0 -3.768509,-5.49126 -3.930016,-7.537016 C 2.8320384,72.522783 14.561046,59.864909 19.449594,54.413518 16.147155,55.410006 12.7423,57.39736 8.4485246,60.484612 7.694823,61.02297 5.5952252,56.12391 5.6490619,52.355403 10.601958,48.694565 18.138976,46.379624 24.222424,46.379624 c 8.506061,0 13.405125,4.737554 13.405125,11.305525 0,5.491254 -4.576046,11.520868 -11.25169,11.736212 -3.471097,0.09016 -5.695768,-1.858322 -6.833629,-4.264453 0.136009,3.72131 2.070786,8.30214 7.264314,8.30214 6.029615,0 8.721405,-3.876181 13.243617,-9.528944 3.445492,-4.253029 7.429347,-8.021538 13.243616,-8.021538 3.553166,0 5.975782,2.20727 5.975782,5.545092 0,4.037688 -4.737561,9.636614 -11.359368,9.636614 -1.130971,0 -2.161843,-0.149009 -3.032049,-0.443556 -0.02191,0.169791 -0.03659,0.336737 -0.03659,0.497393 0,1.884253 0.699864,3.014805 3.768507,3.014805 4.522208,0 8.775238,-2.691791 13.943474,-8.990585 5.060574,-6.19112 8.882918,-8.882911 12.920604,-8.882911 2.725545,0 4.794234,1.477186 5.705915,3.965069 5.411344,-7.815619 10.002002,-13.353285 13.890325,-17.047177 3.82234,1.615075 6.567973,4.791389 5.814273,5.437419 -2.8533,2.584119 -12.382246,12.974435 -16.150745,19.165556 -0.969052,1.615076 -1.884268,3.391659 -1.884268,4.253032 0,0.807537 0.484531,1.076719 1.022887,1.076719 3.553166,0 12.005398,-11.520872 16.796776,-16.581439 3.01481,1.238225 6.08345,3.87618 5.32975,4.791387 -3.98385,4.737556 -6.998662,8.613735 -6.998662,10.821003 0,0.592196 0.215343,0.969049 1.022892,0.969049 1.5074,0 2.90713,-1.345899 5.22207,-4.199197 0.48452,-0.592196 1.07671,-0.592196 1.45356,0.323014 1.02288,2.47645 2.53029,3.822345 3.71468,3.822345 1.39973,0 2.0996,-1.238225 2.0996,-3.122479 0,-2.261103 -0.48453,-5.168242 -0.48453,-6.460299 0,-4.360703 3.23015,-6.890987 7.26784,-6.890987 3.0148,0 5.7066,1.453567 6.99865,5.060568 z m -99.52141,-7.85283 c -1.813125,2.833795 -3.500804,5.48095 -5.205674,8.062496 0.926564,0.52039 2.09823,0.920886 3.623403,0.920886 2.8533,0 5.975778,-1.561239 5.975778,-4.737553 0,-1.927602 -1.196374,-3.704696 -4.393507,-4.245829 z m 18.923348,14.457076 c 0.565801,0.218591 1.230073,0.340575 1.943926,0.340575 3.822345,0 6.406463,-2.907134 6.406463,-4.845223 0,-0.861375 -0.538357,-1.453568 -1.399728,-1.453568 -2.159904,0 -5.41776,3.03109 -6.950661,5.958216 z m 32.038151,-4.020128 c 0,-1.076716 -0.592192,-1.722745 -1.561235,-1.722745 -3.176315,0 -7.967701,6.029612 -7.967701,9.04442 0,0.969045 0.538357,1.615074 1.668916,1.615074 3.499329,0 7.86002,-6.352627 7.86002,-8.936749 z"
     id="path1"
     style="stroke-width:0.249364" /></svg>
