<?xml version="1.0" encoding="UTF-8" standalone="no"?>
<svg
   viewBox="0 0 128 128"
   version="1.1"
   id="svg5"
   sodipodi:docname="sass-original.svg"
   inkscape:export-filename="angularmaterial-orig.png"
   inkscape:export-xdpi="96"
   inkscape:export-ydpi="96"
   xml:space="preserve"
   inkscape:version="1.4.2 (ebf0e940d0, 2025-05-08)"
   xmlns:inkscape="http://www.inkscape.org/namespaces/inkscape"
   xmlns:sodipodi="http://sodipodi.sourceforge.net/DTD/sodipodi-0.dtd"
   xmlns="http://www.w3.org/2000/svg"
   xmlns:svg="http://www.w3.org/2000/svg"><defs
     id="defs5"><linearGradient
       id="swatch6"
       inkscape:swatch="solid"><stop
         style="stop-color:#00ff00;stop-opacity:1;"
         offset="0"
         id="stop6" /></linearGradient><clipPath
       id="_clipPath_2GFXlhoLK0PQwPMcNgecx9cHDe99PPCk"><rect
         width="179"
         height="195"
         id="rect1"
         x="0"
         y="0" /></clipPath></defs><sodipodi:namedview
     id="namedview5"
     pagecolor="#ffffff"
     bordercolor="#000000"
     borderopacity="0.25"
     inkscape:showpageshadow="2"
     inkscape:pageopacity="0.0"
     inkscape:pagecheckerboard="0"
     inkscape:deskcolor="#d1d1d1"
     inkscape:zoom="4.4415145"
     inkscape:cx="84.543234"
     inkscape:cy="71.709774"
     inkscape:window-width="1920"
     inkscape:window-height="1080"
     inkscape:window-x="0"
     inkscape:window-y="0"
     inkscape:window-maximized="1"
     inkscape:current-layer="svg5" /><style
     type="text/css"
     id="style1">
	.st0{fill:#FF4438;}
</style><path
     fill="#cd6799"
     d="m 109.08732,66.792437 c -4.39342,0.02299 -8.21171,1.081098 -11.40901,2.645237 -1.173093,-2.323207 -2.346209,-4.393391 -2.553228,-5.911527 -0.230014,-1.771155 -0.50604,-2.852255 -0.230014,-4.968443 0.276023,-2.116188 1.518132,-5.12946 1.495122,-5.359479 -0.023,-0.230023 -0.276013,-1.311115 -2.806239,-1.334126 -2.53022,-0.02303 -4.715419,0.483046 -4.968442,1.150112 -0.253029,0.667058 -0.736065,2.185193 -1.058095,3.749334 -0.437036,2.300203 -5.060448,10.511933 -7.705686,14.813322 -0.851079,-1.679153 -1.587143,-3.151284 -1.748153,-4.324387 -0.230025,-1.771161 -0.50605,-2.852255 -0.230025,-4.968442 0.276029,-2.116191 1.51814,-5.129461 1.49514,-5.359478 -0.023,-0.230025 -0.276027,-1.311116 -2.806256,-1.334126 -2.53023,-0.02301 -4.71542,0.483043 -4.968446,1.150111 -0.253024,0.667058 -0.52905,2.231192 -1.058092,3.74933 -0.529052,1.518135 -6.670596,15.227358 -8.280741,18.769678 -0.828078,1.817157 -1.541141,3.26628 -2.047191,4.255371 0,0 0,0 0,0 0,0 -0.02299,0.06897 -0.09198,0.184032 -0.437034,0.85107 -0.690049,1.311107 -0.690049,1.311107 0,0 0,0 0,0.023 -0.34504,0.621056 -0.713074,1.19611 -0.897083,1.19611 -0.13802,0 -0.391031,-1.656148 0.04599,-3.910351 0.920084,-4.761421 3.105275,-12.168085 3.082276,-12.421106 0,-0.138014 0.414033,-1.426129 -1.426128,-2.093189 -1.794165,-0.66706 -2.438224,0.43704 -2.599232,0.43704 -0.161021,0 -0.276028,0.391035 -0.276028,0.391035 0,0 2.00118,-8.32674 -3.818336,-8.32674 -3.634324,0 -8.648771,3.97935 -11.132997,7.567672 -1.564134,0.851076 -4.899441,2.668237 -8.464753,4.623412 -1.35712,0.759069 -2.760255,1.518136 -4.071372,2.231197 -0.09207,-0.09201 -0.18401,-0.207015 -0.276025,-0.299025 C 22.553647,66.907444 9.5344743,61.593974 10.086531,51.496065 10.293546,47.815736 11.558662,38.154879 35.089759,26.423827 54.457497,16.877974 69.868866,19.523216 72.537107,25.388737 76.355444,33.761486 64.279368,49.310874 44.267581,51.565076 36.6309,52.41615 32.628544,49.471891 31.616452,48.367787 c -1.058101,-1.150099 -1.219111,-1.21911 -1.610143,-0.989084 -0.644058,0.345029 -0.230025,1.380118 0,1.978175 0.598044,1.564141 3.059271,4.324385 7.222636,5.681506 3.680339,1.196102 12.62813,1.863169 23.462101,-2.323206 C 72.813122,48.022748 82.289964,34.980579 79.506718,24.054608 76.723472,12.967646 58.321834,9.3103235 40.909285,15.497875 30.558351,19.178198 19.333354,24.974719 11.259632,32.519395 1.6677773,41.490191 0.14963885,49.287885 0.77069586,52.554186 3.0018949,64.147217 18.988324,71.691892 25.382893,77.281385 c -0.322029,0.184021 -0.621058,0.345042 -0.874071,0.48305 -3.197289,1.587142 -15.3883774,7.95871 -18.4246522,14.698317 -3.4503036,7.636678 0.5520462,13.111158 3.1972869,13.847228 8.2117303,2.2772 16.6534903,-1.81715 21.1848983,-8.57976 4.531398,-6.762616 3.979346,-15.549394 1.886161,-19.574754 -0.02299,-0.046 -0.04606,-0.09198 -0.09198,-0.138007 0.828069,-0.483051 1.679139,-0.98909 2.50722,-1.472138 1.633147,-0.966088 3.243293,-1.86316 4.623413,-2.59923 -0.782065,2.139193 -1.357121,4.692424 -1.633146,8.372752 -0.345031,4.324387 1.426123,9.936883 3.749333,12.145079 1.03509,0.966087 2.254202,0.989093 3.036279,0.989093 2.71423,0 3.933343,-2.2542 5.290463,-4.922446 1.656158,-3.26628 3.151287,-7.061628 3.151287,-7.061628 0,0 -1.863174,10.258919 3.197287,10.258919 1.840161,0 3.703321,-2.392214 4.5314,-3.611325 0,0.023 0,0.023 0,0.023 0,0 0.046,-0.06896 0.138009,-0.230014 0.184019,-0.299027 0.299026,-0.483049 0.299026,-0.483049 0,0 0,-0.023 0,-0.04608 0.736074,-1.288118 2.392224,-4.209381 4.853439,-9.062807 3.174287,-6.256564 6.233558,-14.077261 6.233558,-14.077261 0,0 0.276017,1.909168 1.219102,5.083453 0.552053,1.863167 1.702163,3.910346 2.622235,5.888523 -0.736063,1.035092 -1.1961,1.610145 -1.1961,1.610145 0,0 0,0 0.02298,0.02299 -0.598055,0.782078 -1.242105,1.633148 -1.955174,2.461227 -2.507218,2.990255 -5.497498,6.417571 -5.911521,7.406659 -0.483049,1.17311 -0.368041,2.024179 0.552043,2.71424 0.667059,0.506048 1.863159,0.575061 3.082272,0.506048 2.254203,-0.161007 3.841346,-0.713072 4.623413,-1.0581 1.219111,-0.437036 2.64524,-1.104096 3.979356,-2.093184 2.461216,-1.81716 3.956354,-4.416392 3.818346,-7.843706 -0.06897,-1.886159 -0.690061,-3.772331 -1.449133,-5.543486 0.230022,-0.322031 0.437043,-0.64406 0.667057,-0.966089 3.887352,-5.681507 6.900617,-11.915065 6.900617,-11.915065 0,0 0.276028,1.909172 1.219113,5.083454 0.460039,1.610145 1.403125,3.3583 2.231192,5.060454 -3.657327,2.967269 -5.911528,6.417573 -6.716597,8.671776 -1.449137,4.186368 -0.322029,6.072539 1.81717,6.509576 0.966083,0.207023 2.346208,-0.253016 3.358286,-0.690061 1.288118,-0.414034 2.806263,-1.127097 4.255402,-2.185202 2.461195,-1.817155 4.830397,-4.347386 4.692387,-7.774689 -0.0689,-1.564131 -0.483037,-3.105274 -1.058092,-4.600407 3.105252,-1.288116 7.107632,-2.001179 12.214092,-1.403125 10.94897,1.288113 13.11117,8.119728 12.69712,10.994977 -0.41405,2.875263 -2.71423,4.439404 -3.4733,4.922442 -0.75908,0.483049 -1.01208,0.644056 -0.94311,0.989089 0.0919,0.50605 0.46006,0.48305 1.10412,0.391032 0.89708,-0.161008 5.75052,-2.323205 5.95752,-7.613679 0.34502,-6.762606 -6.09553,-14.146267 -17.48157,-14.07726 z M 24.623798,95.268984 c -3.634329,3.956346 -8.694775,5.451506 -10.879976,4.18638 -2.346206,-1.357135 -1.426122,-7.199648 3.036272,-11.386021 2.714239,-2.553231 6.210545,-4.922452 8.533764,-6.371577 0.529041,-0.322029 1.311118,-0.782066 2.254205,-1.357121 0.161009,-0.09198 0.253014,-0.138008 0.253014,-0.138008 v 0 c 0.18401,-0.115027 0.368042,-0.230023 0.552053,-0.345031 1.633148,5.980535 0.06896,11.247997 -3.749332,15.411378 z M 51.076152,77.281375 c -1.265111,3.082273 -3.910341,10.97198 -5.520484,10.534942 -1.380132,-0.368032 -2.231204,-6.348566 -0.276029,-12.260095 0.98909,-2.967266 3.082275,-6.509583 4.301386,-7.889706 1.978176,-2.208199 4.163367,-2.944262 4.692418,-2.047184 0.66706,1.173105 -2.415211,9.729868 -3.197291,11.662043 z m 21.828954,10.442927 c -0.52904,0.276027 -1.035102,0.460037 -1.265113,0.322028 -0.16101,-0.09198 0.230011,-0.460035 0.230011,-0.460035 0,0 2.737253,-2.944266 3.818346,-4.278383 0.621057,-0.782079 1.357121,-1.702152 2.139198,-2.737243 0,0.09198 0,0.207012 0,0.299028 0,3.519308 -3.404313,5.88853 -4.922442,6.854605 z m 16.837509,-3.841336 c -0.391043,-0.276028 -0.32203,-1.196111 0.989087,-4.071361 0.506041,-1.127107 1.702141,-3.013279 3.749341,-4.830437 0.230015,0.736065 0.391026,1.449125 0.368004,2.116185 -0.023,4.439404 -3.197259,6.09555 -5.106432,6.785613 z"
     id="path1-3"
     style="stroke-width:0.230018" /><g
     id="g1"
     transform="matrix(0.22110692,0,0,0.22110692,89.065542,40.257289)">
</g><g
     id="g2"
     transform="matrix(0.22110692,0,0,0.22110692,89.065542,40.257289)">
</g><g
     id="g3"
     transform="matrix(0.22110692,0,0,0.22110692,89.065542,40.257289)">
</g><g
     id="g4"
     transform="matrix(0.22110692,0,0,0.22110692,89.065542,40.257289)">
</g><g
     id="g5"
     transform="matrix(0.22110692,0,0,0.22110692,89.065542,40.257289)">
</g><g
     id="g6"
     transform="matrix(0.22110692,0,0,0.22110692,89.065542,40.257289)">
</g></svg>
