<?xml version="1.0" encoding="UTF-8" standalone="no"?>
<svg
   viewBox="0 0 128 128"
   version="1.1"
   id="svg5"
   sodipodi:docname="sass-original.svg"
   inkscape:export-filename="angularmaterial-orig.png"
   inkscape:export-xdpi="96"
   inkscape:export-ydpi="96"
   xml:space="preserve"
   inkscape:version="1.4.2 (ebf0e940d0, 2025-05-08)"
   xmlns:inkscape="http://www.inkscape.org/namespaces/inkscape"
   xmlns:sodipodi="http://sodipodi.sourceforge.net/DTD/sodipodi-0.dtd"
   xmlns="http://www.w3.org/2000/svg"
   xmlns:svg="http://www.w3.org/2000/svg"><defs
     id="defs5"><linearGradient
       id="swatch6"
       inkscape:swatch="solid"><stop
         style="stop-color:#00ff00;stop-opacity:1;"
         offset="0"
         id="stop6" /></linearGradient><clipPath
       id="_clipPath_2GFXlhoLK0PQwPMcNgecx9cHDe99PPCk"><rect
         width="179"
         height="195"
         id="rect1"
         x="0"
         y="0" /></clipPath></defs><sodipodi:namedview
     id="namedview5"
     pagecolor="#ffffff"
     bordercolor="#000000"
     borderopacity="0.25"
     inkscape:showpageshadow="2"
     inkscape:pageopacity="0.0"
     inkscape:pagecheckerboard="0"
     inkscape:deskcolor="#d1d1d1"
     inkscape:zoom="4.4415145"
     inkscape:cx="84.880957"
     inkscape:cy="71.709774"
     inkscape:window-width="1920"
     inkscape:window-height="1080"
     inkscape:window-x="0"
     inkscape:window-y="0"
     inkscape:window-maximized="1"
     inkscape:current-layer="svg5" /><style
     type="text/css"
     id="style1">
	.st0{fill:#FF4438;}
</style><path
     fill="#cd6799"
     d="m 110.84112,71.359358 c -4.06604,0.02129 -7.59987,1.000546 -10.55894,2.448144 -1.085689,-2.150109 -2.171392,-4.066047 -2.36299,-5.471069 -0.212875,-1.639188 -0.468336,-2.639736 -0.212875,-4.598251 0.25545,-1.958514 1.405016,-4.747273 1.383728,-4.960152 -0.02128,-0.212886 -0.25546,-1.213426 -2.597157,-1.234722 -2.341697,-0.02131 -4.36408,0.447053 -4.598253,1.064418 -0.234173,0.617357 -0.681221,2.022376 -0.979256,3.469976 -0.404473,2.128819 -4.683403,9.728709 -7.131548,13.709604 -0.787667,-1.55404 -1.468888,-2.916485 -1.617901,-4.002183 -0.212885,-1.639193 -0.468345,-2.639738 -0.212885,-4.598251 0.25546,-1.958516 1.405026,-4.747273 1.383738,-4.960152 -0.02128,-0.212886 -0.25546,-1.213428 -2.597166,-1.234722 -2.341707,-0.0213 -4.364081,0.447053 -4.598254,1.064417 -0.234172,0.617357 -0.489632,2.064951 -0.979255,3.469976 -0.489633,1.40502 -6.17358,14.092789 -7.663756,17.371176 -0.76638,1.681764 -1.426313,3.022918 -1.894658,3.938311 0,0 0,0 0,0 0,0 -0.02128,0.06383 -0.08511,0.170319 -0.404473,0.787659 -0.638636,1.213419 -0.638636,1.213419 0,0 0,0 0,0.02128 -0.319332,0.574783 -0.659943,1.106991 -0.830243,1.106991 -0.127735,0 -0.361898,-1.532752 0.04256,-3.618998 0.85153,-4.406656 2.873905,-11.261461 2.852617,-11.49563 0,-0.127729 0.383185,-1.319869 -1.319866,-1.937227 -1.660486,-0.617358 -2.256556,0.404476 -2.405569,0.404476 -0.149023,0 -0.25546,0.361899 -0.25546,0.361899 0,0 1.852074,-7.706327 -3.533838,-7.706327 -3.363537,0 -8.004366,3.682855 -10.303497,7.003816 -1.447592,0.787664 -4.534391,2.469432 -7.834056,4.27893 -1.256004,0.702511 -2.554592,1.405022 -3.76802,2.064953 -0.08521,-0.08515 -0.1703,-0.191591 -0.25546,-0.276744 C 30.754934,71.465786 18.705801,66.548215 19.216722,57.202688 19.408314,53.796572 20.579167,44.85553 42.357,33.99854 c 17.924678,-8.834606 32.187773,-6.386457 34.657205,-0.957966 3.533838,7.748909 -7.642468,22.139737 -26.163207,24.225982 -7.067685,0.787662 -10.771832,-1.937227 -11.708513,-2.959063 -0.979266,-1.064409 -1.128278,-1.128278 -1.490176,-0.915392 -0.596071,0.319323 -0.212885,1.277289 0,1.830785 0.553486,1.4476 2.831329,4.002184 6.68449,5.258186 3.406122,1.106984 11.687226,1.724348 21.713976,-2.150106 C 77.269659,53.98817 86.040395,41.917752 83.464526,31.805858 80.888656,21.544967 63.858094,18.160146 47.742925,23.886673 38.163223,27.29278 27.774585,32.65741 20.302422,39.639945 c -8.87718,8.302397 -10.282205,15.519099 -9.707423,18.54203 2.064958,10.729254 16.860264,17.711786 22.778383,22.884815 -0.298035,0.17031 -0.574783,0.319333 -0.808946,0.447058 -2.959064,1.468888 -14.241815,7.36572 -17.05186,13.603162 -3.193228,7.06769 0.510914,12.13428 2.959063,12.8155 7.599885,2.10753 15.412663,-1.68177 19.606444,-7.940499 4.19377,-6.258739 3.68285,-14.39083 1.745626,-18.116265 -0.02128,-0.04256 -0.04265,-0.08511 -0.08511,-0.127725 0.766371,-0.447058 1.554029,-0.915394 2.32041,-1.362451 1.511463,-0.894106 3.001639,-1.724339 4.27893,-2.405566 -0.723795,1.979805 -1.256003,4.342799 -1.511463,7.748912 -0.319323,4.002183 1.319866,9.196497 3.469975,11.240168 0.957968,0.894106 2.086246,0.915393 2.810052,0.915393 2.511997,0 3.640275,-2.086246 4.896278,-4.555678 1.532761,-3.022917 2.91649,-6.535477 2.91649,-6.535477 0,0 -1.724349,9.494542 2.959064,9.494542 1.703052,0 3.427391,-2.213972 4.193771,-3.34225 0,0.02128 0,0.02128 0,0.02128 0,0 0.04256,-0.06383 0.127725,-0.212876 0.17031,-0.276747 0.276748,-0.447057 0.276748,-0.447057 0,0 0,-0.02128 0,-0.04265 0.68123,-1.192141 2.213981,-3.895746 4.491816,-8.387552 2.937777,-5.790396 5.769106,-13.028386 5.769106,-13.028386 0,0 0.255451,1.766921 1.128269,4.704694 0.51092,1.724345 1.575336,3.618992 2.426857,5.449778 -0.681221,0.957968 -1.106981,1.490176 -1.106981,1.490176 0,0 0,0 0.02128,0.02128 -0.553495,0.723805 -1.149556,1.511464 -1.809498,2.277844 -2.32041,2.767457 -5.087886,5.939407 -5.471062,6.8548 -0.447058,1.085703 -0.34062,1.873361 0.510911,2.512007 0.617357,0.468335 1.724339,0.532208 2.852617,0.468335 2.086246,-0.149012 3.555135,-0.659933 4.27893,-0.979255 1.128278,-0.404473 2.448145,-1.021831 3.68286,-1.937224 2.277835,-1.681764 3.661573,-4.087333 3.533848,-7.259283 -0.06383,-1.745626 -0.638646,-3.491263 -1.341163,-5.130451 0.212885,-0.298036 0.404482,-0.596071 0.617358,-0.894107 3.59771,-5.258186 6.386464,-11.027291 6.386464,-11.027291 0,0 0.25546,1.766922 1.128278,4.704694 0.425761,1.490175 1.298579,3.108078 2.064949,4.683406 -3.384824,2.746183 -5.471071,5.93941 -6.216154,8.025656 -1.341163,3.874449 -0.298035,5.620085 1.681773,6.024558 0.894106,0.191597 2.171397,-0.234163 3.108068,-0.638646 1.192141,-0.383185 2.597167,-1.043118 3.93833,-2.022384 2.277825,-1.681764 4.470505,-4.02347 4.342785,-7.19541 -0.0638,-1.447591 -0.44705,-2.873906 -0.97926,-4.257639 2.87389,-1.192139 6.57805,-1.852074 11.30403,-1.298581 10.13319,1.192139 12.13428,7.514741 11.75109,10.175761 -0.38319,2.661029 -2.51201,4.10863 -3.21452,4.555678 -0.70251,0.447058 -0.93669,0.59607 -0.87282,0.915393 0.0851,0.468345 0.42577,0.447058 1.02184,0.361898 0.83024,-0.149013 5.32205,-2.150109 5.51364,-7.046398 0.31932,-6.258735 -5.64137,-13.092249 -16.17904,-13.028385 z m -78.170275,26.3548 c -3.363538,3.661572 -8.046941,5.045312 -10.069325,3.874462 -2.171396,-1.25601 -1.319866,-6.663217 2.810042,-10.537665 2.512007,-2.362994 5.74781,-4.555688 7.897928,-5.896841 0.489623,-0.298035 1.213429,-0.723796 2.086247,-1.256004 C 35.54475,83.813 35.6299,83.770385 35.6299,83.770385 v 0 c 0.1703,-0.106447 0.34062,-0.212885 0.51092,-0.319323 1.511464,5.534934 0.06383,10.409926 -3.469975,14.263096 z M 57.152278,81.066781 c -1.170853,2.852617 -3.618988,10.154475 -5.109164,9.750002 -1.277301,-0.340611 -2.064959,-5.875545 -0.25546,-11.346616 0.915393,-2.74618 2.852617,-6.024564 3.980895,-7.301857 1.830786,-2.043668 3.853161,-2.724891 4.342793,-1.894651 0.617358,1.085699 -2.235259,9.004911 -2.959064,10.793122 z m 20.202512,9.664842 c -0.489623,0.25546 -0.957978,0.42576 -1.170853,0.298035 -0.149013,-0.08511 0.212875,-0.42576 0.212875,-0.42576 0,0 2.533304,-2.724892 3.533847,-3.959608 0.574783,-0.723805 1.256004,-1.575326 1.979809,-2.533295 0,0.08511 0,0.191588 0,0.276748 0,3.25709 -3.150662,5.449784 -4.555678,6.34388 z m 15.582971,-3.555125 c -0.361907,-0.255461 -0.298035,-1.106991 0.915393,-3.768011 0.468336,-1.043128 1.575317,-2.788764 3.469975,-4.470528 0.212885,0.681221 0.361898,1.341154 0.340601,1.958512 -0.02128,4.10863 -2.959045,5.641381 -4.725969,6.280027 z"
     id="path1-3"
     style="stroke-width:0.212882" /><g
     id="g1"
     transform="matrix(0.22110692,0,0,0.22110692,89.065542,40.257289)">
</g><g
     id="g2"
     transform="matrix(0.22110692,0,0,0.22110692,89.065542,40.257289)">
</g><g
     id="g3"
     transform="matrix(0.22110692,0,0,0.22110692,89.065542,40.257289)">
</g><g
     id="g4"
     transform="matrix(0.22110692,0,0,0.22110692,89.065542,40.257289)">
</g><g
     id="g5"
     transform="matrix(0.22110692,0,0,0.22110692,89.065542,40.257289)">
</g><g
     id="g6"
     transform="matrix(0.22110692,0,0,0.22110692,89.065542,40.257289)">
</g></svg>
