<?xml version="1.0" encoding="UTF-8" standalone="no"?>
<svg
   viewBox="0 0 128 128"
   version="1.1"
   id="svg5"
   sodipodi:docname="sass-original.svg"
   inkscape:export-filename="angularmaterial-orig.png"
   inkscape:export-xdpi="96"
   inkscape:export-ydpi="96"
   xml:space="preserve"
   inkscape:version="1.4.2 (ebf0e940d0, 2025-05-08)"
   xmlns:inkscape="http://www.inkscape.org/namespaces/inkscape"
   xmlns:sodipodi="http://sodipodi.sourceforge.net/DTD/sodipodi-0.dtd"
   xmlns="http://www.w3.org/2000/svg"
   xmlns:svg="http://www.w3.org/2000/svg"><defs
     id="defs5"><linearGradient
       id="swatch6"
       inkscape:swatch="solid"><stop
         style="stop-color:#00ff00;stop-opacity:1;"
         offset="0"
         id="stop6" /></linearGradient><clipPath
       id="_clipPath_2GFXlhoLK0PQwPMcNgecx9cHDe99PPCk"><rect
         width="179"
         height="195"
         id="rect1"
         x="0"
         y="0" /></clipPath></defs><sodipodi:namedview
     id="namedview5"
     pagecolor="#ffffff"
     bordercolor="#000000"
     borderopacity="0.25"
     inkscape:showpageshadow="2"
     inkscape:pageopacity="0.0"
     inkscape:pagecheckerboard="0"
     inkscape:deskcolor="#d1d1d1"
     inkscape:zoom="4.4415145"
     inkscape:cx="84.768382"
     inkscape:cy="71.709774"
     inkscape:window-width="1920"
     inkscape:window-height="1080"
     inkscape:window-x="0"
     inkscape:window-y="0"
     inkscape:window-maximized="1"
     inkscape:current-layer="svg5" /><style
     type="text/css"
     id="style1">
	.st0{fill:#FF4438;}
</style><path
     fill="#cd6799"
     d="m 111.74819,68.544502 c -3.83826,0.0201 -7.17412,0.944494 -9.96741,2.310995 -1.02487,-2.029656 -2.049751,-3.83826 -2.230616,-5.16457 -0.200949,-1.547358 -0.442099,-2.491854 -0.200949,-4.340649 0.241139,-1.848795 1.326305,-4.481323 1.306205,-4.682276 -0.0201,-0.20096 -0.24114,-1.145448 -2.451655,-1.165551 -2.210512,-0.02012 -4.119597,0.422009 -4.340651,1.004788 -0.221055,0.582771 -0.643058,1.909079 -0.924397,3.275582 -0.381813,2.009558 -4.42103,9.183689 -6.732026,12.941568 -0.74354,-1.46698 -1.386598,-2.753099 -1.527263,-3.777974 -0.200959,-1.547363 -0.442108,-2.491855 -0.200959,-4.340649 0.241149,-1.848797 1.326314,-4.481322 1.306219,-4.682276 -0.02009,-0.200959 -0.241149,-1.145449 -2.451669,-1.16555 -2.21052,-0.02011 -4.119597,0.422008 -4.340651,1.004786 -0.221054,0.582772 -0.462202,1.949269 -0.924396,3.275582 -0.462203,1.326308 -5.827725,13.303286 -7.234419,16.398012 -0.723446,1.587549 -1.346408,2.853569 -1.788516,3.71768 0,0 0,0 0,0 0,0 -0.02009,0.06025 -0.08034,0.160778 -0.381813,0.743533 -0.602858,1.145441 -0.602858,1.145441 0,0 0,0 0,0.02009 -0.301443,0.542582 -0.622972,1.044975 -0.783732,1.044975 -0.120579,0 -0.341623,-1.446884 0.04018,-3.416255 0.803826,-4.159788 2.712904,-10.630575 2.692809,-10.851625 0,-0.120573 0.361718,-1.245928 -1.245925,-1.8287 -1.567463,-0.582773 -2.13014,0.381816 -2.270805,0.381816 -0.140674,0 -0.241149,0.341625 -0.241149,0.341625 0,0 1.748318,-7.274605 -3.335866,-7.274605 -3.175106,0 -7.555947,3.476535 -9.726277,6.61145 -1.366495,0.743538 -4.280366,2.33109 -7.395178,4.039217 -1.185641,0.663155 -2.41148,1.32631 -3.556929,1.949271 -0.08044,-0.08038 -0.16076,-0.180858 -0.241149,-0.261241 C 36.148574,68.64497 24.774454,64.00289 25.256753,55.180915 c 0.180858,-3.215299 1.286118,-11.655448 21.843919,-21.90421 16.920506,-8.339676 30.384557,-6.028677 32.715647,-0.9043 3.335867,7.314802 -7.214323,20.899431 -24.697498,22.8688 -6.671741,0.743536 -10.168375,-1.8287 -11.052582,-2.793291 -0.924405,-1.004779 -1.065069,-1.06507 -1.406693,-0.86411 -0.562678,0.301434 -0.200959,1.205733 0,1.728221 0.522478,1.366503 2.672713,3.777975 6.310013,4.963614 3.215305,1.044968 11.032487,1.627747 20.497521,-2.029654 C 80.057456,52.146478 88.33684,40.752266 85.905276,31.206858 83.473711,21.5208 67.397231,18.325603 52.184862,23.73132 c -9.043031,3.215291 -18.849679,8.279385 -25.903238,14.870746 -8.379865,7.837282 -9.706178,14.649692 -9.163596,17.503273 1.949275,10.128182 15.915722,16.719541 21.502298,21.602768 -0.281339,0.160769 -0.542583,0.301443 -0.763628,0.422013 -2.793292,1.386598 -13.443963,6.953079 -16.096585,12.841089 -3.014337,6.671745 0.482292,11.454501 2.793291,12.097551 7.174127,1.98946 14.549219,-1.58755 18.508057,-7.495656 3.958828,-5.908114 3.47653,-13.584631 1.647833,-17.10136 -0.02009,-0.04018 -0.04026,-0.08034 -0.08034,-0.12057 0.723438,-0.422013 1.46697,-0.864112 2.190417,-1.286124 1.426788,-0.844017 2.833482,-1.627739 4.039217,-2.270802 -0.683247,1.868893 -1.18564,4.099508 -1.426789,7.314804 -0.301434,3.777974 1.245925,8.681293 3.275581,10.610474 0.904301,0.844017 1.969371,0.864111 2.652628,0.864111 2.371271,0 3.436341,-1.96937 4.62198,-4.300461 1.446893,-2.853567 2.753103,-6.169348 2.753103,-6.169348 0,0 -1.627748,8.962641 2.793292,8.962641 1.607644,0 3.235383,-2.089941 3.958829,-3.155011 0,0.02009 0,0.02009 0,0.02009 0,0 0.04018,-0.06025 0.12057,-0.20095 0.160768,-0.261243 0.261244,-0.422012 0.261244,-0.422012 0,0 0,-0.02009 0,-0.04026 0.643066,-1.125355 2.08995,-3.6775 4.240176,-7.917667 2.773198,-5.466008 5.445911,-12.298513 5.445911,-12.298513 0,0 0.24114,1.667935 1.065061,4.441129 0.482298,1.627744 1.487083,3.41625 2.2909,5.144472 -0.643057,0.904301 -1.044966,1.406694 -1.044966,1.406694 0,0 0,0 0.02009,0.02009 -0.522487,0.683256 -1.085156,1.426789 -1.708126,2.150235 -2.190417,2.612419 -4.802854,5.606671 -5.164564,6.470782 -0.422013,1.02488 -0.321538,1.768412 0.482289,2.37128 0.582771,0.442098 1.627738,0.502393 2.692808,0.442098 1.969371,-0.140664 3.35597,-0.622963 4.039217,-0.924396 1.06507,-0.381813 2.310996,-0.964586 3.47654,-1.828697 2.150227,-1.587549 3.456445,-3.858353 3.335875,-6.852605 -0.06025,-1.647833 -0.602867,-3.295676 -1.266028,-4.843034 0.200959,-0.28134 0.381822,-0.562678 0.582772,-0.844018 3.39616,-4.963613 6.028683,-10.409523 6.028683,-10.409523 0,0 0.241149,1.667936 1.06507,4.441129 0.401909,1.406693 1.225831,2.933958 1.949267,4.421034 -3.1952,2.592337 -5.164572,5.606673 -5.867914,7.576044 -1.266029,3.657396 -0.281338,5.305238 1.587557,5.687052 0.844017,0.180863 2.049752,-0.221045 2.933949,-0.602868 1.125355,-0.361718 2.451669,-0.984681 3.717698,-1.909087 2.150209,-1.587548 4.220059,-3.798068 4.099489,-6.79231 -0.0602,-1.366494 -0.422,-2.712905 -0.9244,-4.019119 2.71289,-1.125353 6.20954,-1.748317 10.67076,-1.225832 9.56551,1.125353 11.4545,7.093752 11.09277,9.605697 -0.36172,2.511954 -2.37128,3.878458 -3.03443,4.300461 -0.66316,0.422013 -0.88422,0.562677 -0.82393,0.864111 0.0803,0.442108 0.40192,0.422013 0.9646,0.341624 0.78373,-0.140665 5.0239,-2.029656 5.20475,-6.651646 0.30143,-5.90811 -5.32533,-12.358799 -15.27266,-12.298512 z M 37.957146,93.42286 c -3.175107,3.456444 -7.596137,4.762665 -9.505224,3.657408 -2.04975,-1.185646 -1.245924,-6.289932 2.652619,-9.947327 2.37128,-2.230615 5.425807,-4.30047 7.455472,-5.566489 0.462194,-0.281339 1.145451,-0.683248 1.969372,-1.185641 0.140665,-0.08034 0.221045,-0.120569 0.221045,-0.120569 v 0 c 0.160759,-0.100484 0.321538,-0.200959 0.482297,-0.301434 1.426789,5.224857 0.06025,9.826743 -3.275581,13.464052 z m 23.10994,-15.714762 c -1.105259,2.692809 -3.416246,9.585604 -4.822939,9.20379 -1.205745,-0.321529 -1.949277,-5.546387 -0.241149,-10.710959 0.864111,-2.592334 2.692808,-5.687057 3.757878,-6.892794 1.728222,-1.929178 3.6373,-2.572238 4.099502,-1.788509 0.582773,1.024876 -2.110036,8.50044 -2.793292,10.188472 z m 19.070732,9.123401 c -0.462193,0.241148 -0.90431,0.401908 -1.10526,0.281338 -0.140665,-0.08034 0.20095,-0.401908 0.20095,-0.401908 0,0 2.391384,-2.572239 3.335874,-3.737784 0.542583,-0.683256 1.185641,-1.487073 1.868897,-2.391375 0,0.08034 0,0.180855 0,0.261244 0,3.074622 -2.974156,5.144478 -4.300461,5.988485 z m 14.709986,-3.355961 c -0.341632,-0.24115 -0.281339,-1.044975 0.864111,-3.55692 0.442099,-0.98469 1.487065,-2.632533 3.275581,-4.220081 0.200959,0.643057 0.341624,1.26602 0.32152,1.848792 -0.02009,3.878458 -2.793274,5.325341 -4.461212,5.928209 z"
     id="path1-3"
     style="stroke-width:0.200956" /><g
     id="g1"
     transform="matrix(0.22110692,0,0,0.22110692,89.065542,40.257289)">
</g><g
     id="g2"
     transform="matrix(0.22110692,0,0,0.22110692,89.065542,40.257289)">
</g><g
     id="g3"
     transform="matrix(0.22110692,0,0,0.22110692,89.065542,40.257289)">
</g><g
     id="g4"
     transform="matrix(0.22110692,0,0,0.22110692,89.065542,40.257289)">
</g><g
     id="g5"
     transform="matrix(0.22110692,0,0,0.22110692,89.065542,40.257289)">
</g><g
     id="g6"
     transform="matrix(0.22110692,0,0,0.22110692,89.065542,40.257289)">
</g></svg>
