<?xml version="1.0" encoding="UTF-8" standalone="no"?>
<svg
   viewBox="0 0 128 128"
   version="1.1"
   id="svg5"
   sodipodi:docname="sass-original.svg"
   inkscape:export-filename="angularmaterial-orig.png"
   inkscape:export-xdpi="96"
   inkscape:export-ydpi="96"
   xml:space="preserve"
   inkscape:version="1.4.2 (ebf0e940d0, 2025-05-08)"
   xmlns:inkscape="http://www.inkscape.org/namespaces/inkscape"
   xmlns:sodipodi="http://sodipodi.sourceforge.net/DTD/sodipodi-0.dtd"
   xmlns="http://www.w3.org/2000/svg"
   xmlns:svg="http://www.w3.org/2000/svg"><defs
     id="defs5"><linearGradient
       id="swatch6"
       inkscape:swatch="solid"><stop
         style="stop-color:#00ff00;stop-opacity:1;"
         offset="0"
         id="stop6" /></linearGradient><clipPath
       id="_clipPath_2GFXlhoLK0PQwPMcNgecx9cHDe99PPCk"><rect
         width="179"
         height="195"
         id="rect1"
         x="0"
         y="0" /></clipPath></defs><sodipodi:namedview
     id="namedview5"
     pagecolor="#ffffff"
     bordercolor="#000000"
     borderopacity="0.25"
     inkscape:showpageshadow="2"
     inkscape:pageopacity="0.0"
     inkscape:pagecheckerboard="0"
     inkscape:deskcolor="#d1d1d1"
     inkscape:zoom="4.4415145"
     inkscape:cx="84.43066"
     inkscape:cy="71.709774"
     inkscape:window-width="1920"
     inkscape:window-height="1080"
     inkscape:window-x="0"
     inkscape:window-y="0"
     inkscape:window-maximized="1"
     inkscape:current-layer="svg5" /><style
     type="text/css"
     id="style1">
	.st0{fill:#FF4438;}
</style><path
     fill="#cd6799"
     d="m 110.44281,69.903307 c -4.05302,0.02121 -7.57548,0.997335 -10.525053,2.440285 -1.082202,-2.143206 -2.164425,-4.052993 -2.355405,-5.453505 -0.212193,-1.633927 -0.466832,-2.631264 -0.212193,-4.58349 0.254637,-1.952227 1.400509,-4.732033 1.379281,-4.94423 -0.02122,-0.212201 -0.254627,-1.209531 -2.588812,-1.230759 -2.334181,-0.02125 -4.350072,0.44562 -4.583491,1.061002 -0.233424,0.615374 -0.679035,2.015885 -0.976114,3.458838 -0.403175,2.121984 -4.668368,9.697475 -7.108654,13.665594 -0.785138,-1.549053 -1.464172,-2.907124 -1.612707,-3.989336 -0.212203,-1.633932 -0.466842,-2.631263 -0.212203,-4.58349 0.254642,-1.95223 1.400516,-4.732033 1.379297,-4.944229 -0.02122,-0.212202 -0.25464,-1.209532 -2.588829,-1.230758 -2.334189,-0.02123 -4.350072,0.445617 -4.583493,1.061 -0.23342,0.615375 -0.48806,2.058321 -0.976112,3.458835 -0.488061,1.40051 -6.153762,14.047551 -7.639154,17.315414 -0.763919,1.676364 -1.421734,3.013211 -1.888576,3.925667 0,0 0,0 0,0 0,0 -0.02121,0.06362 -0.08485,0.169774 -0.403173,0.785129 -0.636585,1.209523 -0.636585,1.209523 0,0 0,0 0,0.02122 -0.318306,0.572937 -0.657825,1.103436 -0.827577,1.103436 -0.127326,0 -0.360735,-1.52783 0.04243,-3.607379 0.848797,-4.39251 2.86468,-11.22531 2.843463,-11.458727 0,-0.12732 0.381954,-1.315632 -1.315632,-1.931009 -1.655155,-0.615377 -2.249312,0.403178 -2.397845,0.403178 -0.148545,0 -0.254642,0.360738 -0.254642,0.360738 0,0 1.84613,-7.681589 -3.522493,-7.681589 -3.352739,0 -7.97867,3.671032 -10.27042,6.981333 -1.442945,0.785135 -4.519835,2.461503 -7.808908,4.265193 -1.251972,0.700257 -2.546392,1.400512 -3.755924,2.058325 -0.08494,-0.08488 -0.169753,-0.190976 -0.254639,-0.275857 C 30.61371,70.009403 18.603255,65.107618 19.112538,55.792089 19.303514,52.39691 20.470609,43.48457 42.178531,32.662433 c 17.867137,-8.806246 32.084443,-6.365956 34.54595,-0.954892 3.522494,7.724034 -7.617935,22.068665 -26.07922,24.148212 -7.044995,0.785133 -10.737251,-1.931006 -11.670927,-2.949565 -0.97612,-1.06099 -1.124655,-1.124654 -1.48539,-0.912451 -0.594157,0.318297 -0.212203,1.273188 0,1.824908 0.551708,1.442952 2.82224,3.989334 6.66303,5.241306 3.395188,1.103429 11.64971,1.718812 21.644272,-2.143205 C 76.97911,52.587883 85.721691,40.556213 83.15409,30.47678 80.586489,20.248829 63.610598,16.874874 47.547163,22.583018 37.998214,25.978191 27.642924,31.325601 20.194749,38.28572 c -8.848684,8.275744 -10.2491979,15.469278 -9.67626,18.482507 2.058327,10.69481 16.806137,17.654928 22.705258,22.81135 -0.297078,0.169763 -0.572938,0.318309 -0.806348,0.445624 -2.949565,1.464171 -14.196095,7.342074 -16.997121,13.5595 -3.182976,7.044989 0.509274,12.095319 2.949563,12.774349 7.57549,2.10077 15.363187,-1.67636 19.543505,-7.915002 4.180307,-6.238651 3.671028,-14.344636 1.740022,-18.058113 -0.02121,-0.04244 -0.0425,-0.08485 -0.08485,-0.127315 0.76391,-0.445623 1.54904,-0.912455 2.312962,-1.358077 1.506611,-0.891236 2.992004,-1.718804 4.265193,-2.397843 -0.721471,1.973449 -1.251972,4.328858 -1.506611,7.724036 -0.318298,3.989336 1.315628,9.16698 3.458837,11.204086 0.954892,0.891234 2.079548,0.912458 2.80103,0.912458 2.503933,0 3.62859,-2.079546 4.880561,-4.541058 1.52784,-3.013211 2.907127,-6.514496 2.907127,-6.514496 0,0 -1.718816,9.464063 2.949563,9.464063 1.697586,0 3.41639,-2.206866 4.18031,-3.331521 0,0.02122 0,0.02122 0,0.02122 0,0 0.04244,-0.06361 0.127316,-0.212192 0.169762,-0.275859 0.275858,-0.445623 0.275858,-0.445623 0,0 0,-0.02122 0,-0.04251 0.679044,-1.188315 2.206876,-3.883241 4.477397,-8.360626 2.928345,-5.771809 5.750586,-12.986563 5.750586,-12.986563 0,0 0.254631,1.761247 1.124647,4.68959 0.50928,1.71881 1.57028,3.607375 2.419065,5.432283 -0.679033,0.954894 -1.103427,1.485393 -1.103427,1.485393 0,0 0,0 0.0212,0.02121 -0.551718,0.721482 -1.145867,1.506612 -1.803689,2.270532 -2.31296,2.758572 -5.071554,5.920341 -5.453499,6.832795 -0.445623,1.082218 -0.339526,1.867347 0.509271,2.503943 0.615376,0.466839 1.718802,0.530506 2.843459,0.466839 2.079549,-0.148532 3.543721,-0.657823 4.265194,-0.976119 1.124655,-0.403174 2.440288,-1.018551 3.671038,-1.931005 2.270522,-1.676368 3.649818,-4.074213 3.522503,-7.23598 -0.06362,-1.740021 -0.636596,-3.480053 -1.336856,-5.11398 0.212201,-0.297081 0.403182,-0.594159 0.615374,-0.891238 3.586162,-5.241306 6.365962,-10.991892 6.365962,-10.991892 0,0 0.254641,1.761251 1.124656,4.689591 0.424395,1.485392 1.294412,3.098101 2.058321,4.668373 -3.373959,2.737367 -5.453507,5.920343 -6.196199,7.999892 -1.336858,3.862011 -0.297079,5.602042 1.676376,6.005218 0.891232,0.190982 2.164426,-0.233413 3.098089,-0.636596 1.188315,-0.381954 2.588835,-1.03977 3.925696,-2.015893 2.270502,-1.676364 4.456132,-4.010553 4.328822,-7.172311 -0.0636,-1.442943 -0.44561,-2.86468 -0.97611,-4.243971 2.86466,-1.188313 6.55694,-1.846128 11.26775,-1.294412 10.10065,1.188312 12.09533,7.490617 11.71336,10.143094 -0.38197,2.652489 -2.50394,4.095441 -3.20419,4.541054 -0.70027,0.445622 -0.93368,0.594155 -0.87004,0.912455 0.0848,0.466841 0.42441,0.445623 1.01857,0.360735 0.82757,-0.148534 5.30497,-2.143205 5.49593,-7.023776 0.31829,-6.238643 -5.62325,-13.050222 -16.1271,-12.986562 z M 32.523466,96.173508 c -3.352742,3.64981 -8.021109,5.029122 -10.037001,3.862022 -2.164424,-1.251985 -1.315627,-6.641824 2.801023,-10.503839 2.503942,-2.355409 5.729356,-4.541064 7.872573,-5.877911 0.488051,-0.297079 1.209534,-0.721472 2.079551,-1.251973 0.148534,-0.08485 0.23341,-0.127314 0.23341,-0.127314 v 0 c 0.169753,-0.106115 0.339527,-0.212202 0.509281,-0.318298 1.506612,5.517166 0.06361,10.376508 -3.458837,14.217313 z m 24.402842,-16.59394 c -1.167092,2.84346 -3.60737,10.121878 -5.092761,9.718701 -1.2732,-0.339517 -2.058331,-5.856683 -0.254642,-11.31019 0.912456,-2.737364 2.843462,-6.005225 3.968117,-7.278416 1.824908,-2.037109 3.840792,-2.716143 4.328852,-1.88857 0.615377,1.082214 -2.228082,8.976004 -2.949566,10.758475 z m 20.137659,9.633816 c -0.48805,0.25464 -0.954903,0.424393 -1.167092,0.297077 -0.148536,-0.08485 0.212189,-0.424392 0.212189,-0.424392 0,0 2.525173,-2.716146 3.522503,-3.946897 0.572938,-0.721483 1.251972,-1.570269 1.973454,-2.525162 0,0.08485 0,0.190973 0,0.275859 0,3.246634 -3.140548,5.43229 -4.541054,6.323515 z m 15.532949,-3.543712 c -0.360746,-0.254642 -0.29708,-1.103437 0.912453,-3.755915 0.466833,-1.039779 1.57026,-2.779811 3.458844,-4.456177 0.212193,0.679035 0.36073,1.336848 0.339491,1.952224 -0.02122,4.095441 -2.949537,5.623271 -4.710788,6.259868 z"
     id="path1-3"
     style="stroke-width:0.212197" /><g
     id="g1"
     transform="matrix(0.22110692,0,0,0.22110692,89.065542,40.257289)">
</g><g
     id="g2"
     transform="matrix(0.22110692,0,0,0.22110692,89.065542,40.257289)">
</g><g
     id="g3"
     transform="matrix(0.22110692,0,0,0.22110692,89.065542,40.257289)">
</g><g
     id="g4"
     transform="matrix(0.22110692,0,0,0.22110692,89.065542,40.257289)">
</g><g
     id="g5"
     transform="matrix(0.22110692,0,0,0.22110692,89.065542,40.257289)">
</g><g
     id="g6"
     transform="matrix(0.22110692,0,0,0.22110692,89.065542,40.257289)">
</g></svg>
