<?xml version="1.0" encoding="UTF-8" standalone="no"?>
<svg
   viewBox="0 0 128 128"
   version="1.1"
   id="svg5"
   sodipodi:docname="sass-original.svg"
   inkscape:export-filename="angularmaterial-orig.png"
   inkscape:export-xdpi="96"
   inkscape:export-ydpi="96"
   xml:space="preserve"
   inkscape:version="1.4.2 (ebf0e940d0, 2025-05-08)"
   xmlns:inkscape="http://www.inkscape.org/namespaces/inkscape"
   xmlns:sodipodi="http://sodipodi.sourceforge.net/DTD/sodipodi-0.dtd"
   xmlns="http://www.w3.org/2000/svg"
   xmlns:svg="http://www.w3.org/2000/svg"><defs
     id="defs5"><linearGradient
       id="swatch6"
       inkscape:swatch="solid"><stop
         style="stop-color:#00ff00;stop-opacity:1;"
         offset="0"
         id="stop6" /></linearGradient><clipPath
       id="_clipPath_2GFXlhoLK0PQwPMcNgecx9cHDe99PPCk"><rect
         width="179"
         height="195"
         id="rect1"
         x="0"
         y="0" /></clipPath></defs><sodipodi:namedview
     id="namedview5"
     pagecolor="#ffffff"
     bordercolor="#000000"
     borderopacity="0.25"
     inkscape:showpageshadow="2"
     inkscape:pageopacity="0.0"
     inkscape:pagecheckerboard="0"
     inkscape:deskcolor="#d1d1d1"
     inkscape:zoom="4.4415145"
     inkscape:cx="84.543234"
     inkscape:cy="71.709774"
     inkscape:window-width="1920"
     inkscape:window-height="1080"
     inkscape:window-x="0"
     inkscape:window-y="0"
     inkscape:window-maximized="1"
     inkscape:current-layer="svg5" /><style
     type="text/css"
     id="style1">
	.st0{fill:#FF4438;}
</style><path
     fill="#cd6799"
     d="m 109.14988,66.936005 c -4.37771,0.02291 -8.18235,1.077232 -11.368219,2.635778 -1.168898,-2.3149 -2.337819,-4.377681 -2.544098,-5.890389 -0.229192,-1.764822 -0.504231,-2.842056 -0.229192,-4.950677 0.275036,-2.108621 1.512704,-5.111119 1.489776,-5.340315 -0.02292,-0.229201 -0.275026,-1.306427 -2.796204,-1.329356 -2.521173,-0.02295 -4.698559,0.481319 -4.950677,1.146 -0.252124,0.664672 -0.733433,2.177379 -1.054311,3.735927 -0.435474,2.291978 -5.042354,10.474346 -7.678133,14.760354 -0.848036,-1.673149 -1.581468,-3.140016 -1.741902,-4.308924 -0.229203,-1.764828 -0.504241,-2.842056 -0.229203,-4.950677 0.275042,-2.108624 1.512712,-5.111119 1.489794,-5.340314 -0.02292,-0.229202 -0.27504,-1.306428 -2.796222,-1.329355 -2.521182,-0.02293 -4.698559,0.481316 -4.95068,1.145998 -0.252119,0.664673 -0.527158,2.223214 -1.054309,3.735924 -0.52716,1.512706 -6.646743,15.172909 -8.251131,18.702563 -0.825117,1.810659 -1.53563,3.254601 -2.039871,4.240155 0,0 0,0 0,0 0,0 -0.02291,0.06872 -0.09165,0.183374 -0.435471,0.848027 -0.687582,1.306419 -0.687582,1.306419 0,0 0,0 0,0.02292 -0.343806,0.618835 -0.710524,1.191833 -0.893875,1.191833 -0.137526,0 -0.389633,-1.650226 0.04583,-3.896369 0.916794,-4.744396 3.094171,-12.124576 3.071254,-12.376692 0,-0.13752 0.412553,-1.421029 -1.421028,-2.085704 -1.78775,-0.664675 -2.429506,0.435477 -2.589938,0.435477 -0.160445,0 -0.275041,0.389637 -0.275041,0.389637 0,0 1.994024,-8.296966 -3.804683,-8.296966 -3.621329,0 -8.617846,3.965121 -11.093189,7.540612 -1.558541,0.848033 -4.881922,2.658696 -8.434485,4.60688 -1.352268,0.756355 -2.750385,1.512708 -4.056814,2.223219 -0.09174,-0.09168 -0.183352,-0.206275 -0.275038,-0.297956 C 22.925622,67.0506 9.9530017,61.75613 10.503084,51.694328 c 0.206275,-3.667169 1.466867,-13.293482 24.913824,-24.982587 19.298485,-9.51172 34.654748,-6.875937 37.313448,-1.031389 3.804684,8.342811 -8.228212,23.836599 -28.168443,26.08274 -7.609374,0.848031 -11.597419,-2.0857 -12.605892,-3.185856 -1.054318,-1.145987 -1.214752,-1.214751 -1.604386,-0.985548 -0.641755,0.343796 -0.229202,1.375184 0,1.971102 0.595906,1.558548 3.048332,4.308922 7.19681,5.661191 3.667179,1.191825 12.582976,1.856507 23.378208,-2.314899 C 73.005384,48.233431 82.448339,35.237896 79.675045,24.350993 76.901752,13.303675 58.565912,9.6594301 41.215625,15.824857 30.901703,19.49202 19.716844,25.267814 11.671991,32.785513 2.1144336,41.724232 0.60172361,49.494044 1.2205599,52.748665 3.4437808,64.300243 19.373047,71.817941 25.744751,77.387447 25.423874,77.57081 25.125914,77.731256 24.873806,77.86877 21.687949,79.450237 9.5404524,85.799022 6.5150344,92.51453 c -3.4379663,7.60937 0.5500723,13.06428 3.1858544,13.79771 8.1823672,2.26906 16.5939422,-1.81065 21.1091472,-8.549077 4.515195,-6.738434 3.965117,-15.493794 1.879417,-19.50476 -0.02291,-0.04584 -0.0459,-0.09165 -0.09165,-0.137514 0.825108,-0.481323 1.673135,-0.985553 2.498255,-1.466874 1.627307,-0.962633 3.231696,-1.856498 4.606881,-2.589936 -0.779269,2.131544 -1.352269,4.675646 -1.627307,8.342814 -0.343797,4.308924 1.421024,9.901352 3.735927,12.101652 1.031389,0.962632 2.246142,0.985556 3.025422,0.985556 2.704525,0 3.919279,-2.24614 5.271546,-4.904845 1.650236,-3.254601 3.140019,-7.036377 3.140019,-7.036377 0,0 -1.856512,10.222236 3.185854,10.222236 1.833581,0 3.690079,-2.38366 4.515197,-3.598412 0,0.02292 0,0.02292 0,0.02292 0,0 0.04584,-0.06871 0.137516,-0.229191 0.183361,-0.297958 0.297957,-0.481322 0.297957,-0.481322 0,0 0,-0.02292 0,-0.04591 0.733442,-1.283512 2.38367,-4.19433 4.836084,-9.030401 3.162937,-6.234193 6.211269,-14.026925 6.211269,-14.026925 0,0 0.27503,1.902341 1.214743,5.065276 0.550079,1.856505 1.696076,3.896364 2.612858,5.867467 -0.733431,1.031391 -1.191823,1.604388 -1.191823,1.604388 0,0 0,0 0.0229,0.02291 -0.595916,0.779281 -1.237663,1.627308 -1.948183,2.452426 -2.498253,2.979563 -5.47784,6.394624 -5.890383,7.380175 -0.481322,1.168915 -0.366725,2.016941 0.550069,2.704535 0.664674,0.504238 1.856497,0.573005 3.071251,0.504238 2.246143,-0.160431 3.82761,-0.710522 4.606881,-1.054316 1.214752,-0.435473 2.635781,-1.100148 3.965127,-2.0857 2.452415,-1.810662 3.942207,-4.4006 3.804693,-7.815659 -0.06872,-1.879415 -0.687594,-3.758842 -1.443952,-5.523664 0.2292,-0.32088 0.435481,-0.641757 0.664672,-0.962635 3.873452,-5.661191 6.875943,-11.87246 6.875943,-11.87246 0,0 0.275041,1.902346 1.214753,5.065277 0.458394,1.604388 1.398108,3.346292 2.223214,5.04236 -3.644249,2.956659 -5.89039,6.394625 -6.69258,8.640768 -1.443955,4.171399 -0.320878,6.050825 1.810672,6.4863 0.962629,0.206282 2.337819,-0.252112 3.346278,-0.687594 1.283512,-0.412553 2.796229,-1.123067 4.240186,-2.177388 2.452394,-1.810658 4.813118,-4.331841 4.675608,-7.746889 -0.0687,-1.558538 -0.481309,-3.094171 -1.054308,-4.583958 3.094148,-1.28351 7.082218,-1.994023 12.170418,-1.398108 10.90982,1.283508 13.06429,8.090695 12.65172,10.955663 -0.41257,2.864982 -2.70453,4.42353 -3.46088,4.904841 -0.75637,0.481321 -1.00847,0.641753 -0.93974,0.985552 0.0916,0.50424 0.45841,0.481323 1.10017,0.389634 0.89387,-0.160433 5.72996,-2.314898 5.93622,-7.586455 0.34378,-6.738425 -6.07374,-14.095684 -17.41906,-14.026924 z M 24.98837,95.310728 c -3.621333,3.942199 -8.663685,5.432012 -10.841072,4.171411 -2.337817,-1.352282 -1.421023,-7.173904 3.025415,-11.345308 2.704534,-2.544102 6.188338,-4.904851 8.50325,-6.348794 0.527149,-0.320878 1.30643,-0.77927 2.246145,-1.352269 0.160433,-0.09165 0.252109,-0.137514 0.252109,-0.137514 v 0 c 0.183352,-0.114616 0.366726,-0.229201 0.550079,-0.343797 1.627308,5.95915 0.06871,11.207777 -3.735926,15.356271 z M 51.346139,77.387437 c -1.260588,3.071252 -3.896359,10.932748 -5.500745,10.497273 -1.375197,-0.366716 -2.223226,-6.325866 -0.275042,-12.216257 0.985554,-2.956656 3.071254,-6.486307 4.286006,-7.861495 1.971102,-2.200303 4.14848,-2.933734 4.675639,-2.039864 0.664675,1.168911 -2.406575,9.695077 -3.185858,11.620343 z m 21.7509,10.405587 c -0.527148,0.27504 -1.031401,0.458392 -1.260589,0.320876 -0.160435,-0.09165 0.229188,-0.45839 0.229188,-0.45839 0,0 2.727466,-2.933738 3.804693,-4.263085 0.618836,-0.779282 1.352268,-1.696065 2.131549,-2.727455 0,0.09165 0,0.206272 0,0.297959 0,3.506724 -3.39214,5.867474 -4.904841,6.830095 z m 16.777303,-3.827601 c -0.389645,-0.275041 -0.320879,-1.191834 0.98555,-4.056803 0.504232,-1.123077 1.696055,-3.002504 3.735935,-4.813165 0.229192,0.733433 0.389628,1.443944 0.366688,2.108618 -0.02292,4.42353 -3.185827,6.073755 -5.088173,6.76135 z"
     id="path1-3"
     style="stroke-width:0.229196" /><g
     id="g1"
     transform="matrix(0.22110692,0,0,0.22110692,89.065542,40.257289)">
</g><g
     id="g2"
     transform="matrix(0.22110692,0,0,0.22110692,89.065542,40.257289)">
</g><g
     id="g3"
     transform="matrix(0.22110692,0,0,0.22110692,89.065542,40.257289)">
</g><g
     id="g4"
     transform="matrix(0.22110692,0,0,0.22110692,89.065542,40.257289)">
</g><g
     id="g5"
     transform="matrix(0.22110692,0,0,0.22110692,89.065542,40.257289)">
</g><g
     id="g6"
     transform="matrix(0.22110692,0,0,0.22110692,89.065542,40.257289)">
</g></svg>
