<?xml version="1.0" encoding="UTF-8" standalone="no"?>
<svg
   viewBox="0 0 128 128"
   version="1.1"
   id="svg5"
   sodipodi:docname="sass-original.svg"
   inkscape:export-filename="angularmaterial-orig.png"
   inkscape:export-xdpi="96"
   inkscape:export-ydpi="96"
   xml:space="preserve"
   inkscape:version="1.4.2 (ebf0e940d0, 2025-05-08)"
   xmlns:inkscape="http://www.inkscape.org/namespaces/inkscape"
   xmlns:sodipodi="http://sodipodi.sourceforge.net/DTD/sodipodi-0.dtd"
   xmlns="http://www.w3.org/2000/svg"
   xmlns:svg="http://www.w3.org/2000/svg"><defs
     id="defs5"><linearGradient
       id="swatch6"
       inkscape:swatch="solid"><stop
         style="stop-color:#00ff00;stop-opacity:1;"
         offset="0"
         id="stop6" /></linearGradient><clipPath
       id="_clipPath_2GFXlhoLK0PQwPMcNgecx9cHDe99PPCk"><rect
         width="179"
         height="195"
         id="rect1"
         x="0"
         y="0" /></clipPath></defs><sodipodi:namedview
     id="namedview5"
     pagecolor="#ffffff"
     bordercolor="#000000"
     borderopacity="0.25"
     inkscape:showpageshadow="2"
     inkscape:pageopacity="0.0"
     inkscape:pagecheckerboard="0"
     inkscape:deskcolor="#d1d1d1"
     inkscape:zoom="4.4415145"
     inkscape:cx="84.655808"
     inkscape:cy="71.709774"
     inkscape:window-width="1920"
     inkscape:window-height="1080"
     inkscape:window-x="0"
     inkscape:window-y="0"
     inkscape:window-maximized="1"
     inkscape:current-layer="svg5" /><style
     type="text/css"
     id="style1">
	.st0{fill:#FF4438;}
</style><path
     fill="#cd6799"
     d="m 112.90548,71.200504 c -3.54764,0.01858 -6.63091,0.872979 -9.2127,2.136011 -0.94727,-1.875975 -1.89455,-3.547635 -2.06172,-4.773519 -0.18573,-1.430196 -0.40862,-2.303177 -0.18573,-4.011985 0.22288,-1.708808 1.22588,-4.142006 1.2073,-4.327744 -0.0186,-0.185743 -0.22288,-1.058717 -2.26602,-1.077298 -2.043137,-0.0186 -3.80767,0.390056 -4.011986,0.928708 -0.204318,0.538645 -0.594367,1.764528 -0.854404,3.027562 -0.352903,1.857398 -4.086279,8.488319 -6.222291,11.96166 -0.687241,-1.355904 -1.281608,-2.54464 -1.411622,-3.491914 -0.185743,-1.4302 -0.408633,-2.303177 -0.185743,-4.011984 0.22289,-1.70881 1.225888,-4.142006 1.207315,-4.327744 -0.01857,-0.185743 -0.22289,-1.058718 -2.266034,-1.077297 -2.043144,-0.01859 -3.80767,0.390054 -4.011986,0.928705 -0.204316,0.538646 -0.427205,1.801675 -0.854403,3.027562 -0.427206,1.225883 -5.386462,12.29599 -6.686644,15.15639 -0.668668,1.467343 -1.244461,2.637502 -1.653093,3.436185 0,0 0,0 0,0 0,0 -0.01857,0.05569 -0.07426,0.148604 -0.352903,0.687234 -0.557211,1.058711 -0.557211,1.058711 0,0 0,0 0,0.01857 -0.278618,0.501499 -0.575802,0.965852 -0.724389,0.965852 -0.111449,0 -0.315756,-1.337329 0.03714,-3.157583 0.742962,-3.844818 2.507489,-9.825651 2.488916,-10.029963 0,-0.111444 0.334329,-1.151589 -1.151587,-1.690235 -1.448778,-0.538647 -1.96885,0.352906 -2.098864,0.352906 -0.130023,0 -0.22289,0.315758 -0.22289,0.315758 0,0 1.615939,-6.723788 -3.083281,-6.723788 -2.934694,0 -6.983827,3.213299 -8.989824,6.110845 -1.263027,0.687239 -3.956266,2.154585 -6.835231,3.733376 -1.095867,0.612943 -2.228888,1.225885 -3.287606,1.801677 -0.07435,-0.07429 -0.148587,-0.167164 -0.222889,-0.241461 C 43.030106,71.293365 32.51721,67.002773 32.962991,58.848779 33.130155,55.876936 34.151727,48.075857 53.152935,38.60311 c 15.639321,-7.708214 28.083902,-5.572199 30.238487,-0.835829 3.083282,6.760941 -6.66807,19.316971 -22.827456,21.137223 -6.166571,0.687237 -9.398447,-1.690234 -10.215704,-2.581789 -0.854411,-0.928699 -0.984424,-0.984425 -1.300181,-0.798681 -0.520073,0.27861 -0.185743,1.114437 0,1.597364 0.482917,1.263034 2.470341,3.491914 5.832232,4.587779 2.971849,0.965846 10.197131,1.504498 18.945493,-1.875972 9.788495,-3.789102 17.440981,-14.320568 15.19353,-23.143218 -2.247452,-8.95265 -17.106655,-11.905914 -31.167175,-6.909506 -8.358312,2.971836 -17.422422,7.652488 -23.9419,13.744765 -7.74536,7.243859 -8.971247,13.540448 -8.469748,16.177962 1.80168,9.361297 14.710617,15.453573 19.874189,19.967052 -0.260036,0.148596 -0.501499,0.278619 -0.705807,0.390059 -2.58179,1.281608 -12.426015,6.426607 -14.877786,11.868789 -2.786098,6.166575 0.445774,10.587192 2.581789,11.181552 6.630917,1.83882 13.447583,-1.46735 17.106666,-6.928103 3.659074,-5.460764 3.213295,-12.556031 1.523063,-15.806481 -0.01857,-0.03714 -0.03721,-0.07426 -0.07426,-0.111441 0.668661,-0.390059 1.355894,-0.798683 2.024563,-1.188741 1.318755,-0.78011 2.618937,-1.50449 3.733376,-2.098862 -0.631513,1.727385 -1.095866,3.789102 -1.318755,6.760943 -0.27861,3.491914 1.151586,8.023964 3.027561,9.807071 0.835829,0.78011 1.820254,0.798683 2.451776,0.798683 2.191724,0 3.176149,-1.820254 4.272014,-3.97484 1.337337,-2.6375 2.544644,-5.702218 2.544644,-5.702218 0,0 -1.504499,8.284009 2.581789,8.284009 1.485917,0 2.990407,-1.931695 3.659075,-2.91612 0,0.01857 0,0.01857 0,0.01857 0,0 0.03714,-0.05569 0.111441,-0.185735 0.148595,-0.241462 0.241463,-0.390058 0.241463,-0.390058 0,0 0,-0.01857 0,-0.03721 0.594375,-1.040146 1.931704,-3.399048 3.919119,-7.318158 2.563217,-5.052134 5.033558,-11.367296 5.033558,-11.367296 0,0 0.222882,1.541642 0.984417,4.104856 0.445779,1.504495 1.374484,3.157579 2.117438,4.754943 -0.594366,0.83583 -0.965843,1.300183 -0.965843,1.300183 0,0 0,0 0.01857,0.01857 -0.482925,0.631522 -1.00299,1.318756 -1.57879,1.987424 -2.024563,2.414612 -4.439192,5.182146 -4.773514,5.980828 -0.390059,0.947279 -0.297192,1.634512 0.445771,2.191732 0.538645,0.408623 1.504489,0.464353 2.488914,0.408623 1.820255,-0.130013 3.101863,-0.575793 3.733376,-0.854402 0.984425,-0.352903 2.136013,-0.89155 3.213304,-1.690232 1.987416,-1.467344 3.19473,-3.566207 3.08329,-6.333741 -0.05569,-1.523062 -0.55722,-3.046134 -1.170167,-4.476329 0.185742,-0.260038 0.352911,-0.520074 0.538645,-0.780111 3.13901,-4.587779 5.572204,-9.621336 5.572204,-9.621336 0,0 0.22289,1.541643 0.984425,4.104856 0.371478,1.300181 1.133014,2.711805 1.801673,4.086283 -2.953266,2.39605 -4.773521,5.182147 -5.423608,7.002402 -1.170168,3.380465 -0.260036,4.903536 1.467351,5.25644 0.780109,0.167169 1.894549,-0.204308 2.711796,-0.55722 1.040146,-0.334329 2.266037,-0.910123 3.436207,-1.764535 1.9874,-1.467342 3.90052,-3.510486 3.78908,-6.278011 -0.0556,-1.263026 -0.39005,-2.507489 -0.85441,-3.714799 2.50748,-1.040144 5.73937,-1.615939 9.8628,-1.133015 8.84123,1.040144 10.58719,6.556628 10.25285,8.878374 -0.33434,2.321754 -2.19174,3.584789 -2.80467,3.974839 -0.61295,0.390059 -0.81727,0.520072 -0.76155,0.798683 0.0742,0.408632 0.37149,0.390059 0.89157,0.315756 0.72438,-0.130014 4.6435,-1.875974 4.81065,-6.147997 0.27861,-5.46076 -4.9221,-11.423017 -14.11624,-11.367295 z M 44.701737,94.195125 c -2.934695,3.19473 -7.020974,4.402046 -8.785509,3.380477 -1.894547,-1.095871 -1.151585,-5.813671 2.451769,-9.194136 2.191731,-2.061718 5.014976,-3.974848 6.890959,-5.145007 0.427198,-0.260036 1.05872,-0.631513 1.820256,-1.095866 0.130014,-0.07426 0.204307,-0.11144 0.204307,-0.11144 v 0 c 0.148587,-0.09288 0.297192,-0.185743 0.445779,-0.27861 1.318756,4.829242 0.05569,9.082683 -3.027561,12.444582 z M 66.061841,79.670252 c -1.021571,2.488915 -3.157575,8.859802 -4.457756,8.506898 -1.114448,-0.297183 -1.801682,-5.126426 -0.22289,-9.899948 0.798683,-2.396047 2.488915,-5.256445 3.47334,-6.370886 1.597364,-1.783105 3.361891,-2.377473 3.789096,-1.653087 0.538647,0.947275 -1.950268,7.856805 -2.58179,9.417023 z m 17.626737,8.432596 c -0.427197,0.222889 -0.835838,0.371477 -1.021572,0.260036 -0.130014,-0.07426 0.185734,-0.371476 0.185734,-0.371476 0,0 2.210314,-2.377475 3.083289,-3.454767 0.5015,-0.631522 1.095867,-1.374475 1.727388,-2.210306 0,0.07426 0,0.167162 0,0.241464 0,2.841818 -2.748959,4.754949 -3.974839,5.535049 z m 13.596177,-3.101854 c -0.315764,-0.222891 -0.260037,-0.965852 0.798682,-3.287598 0.408625,-0.910131 1.374468,-2.433203 3.027563,-3.900545 0.18574,0.594366 0.31576,1.170159 0.29717,1.708805 -0.0186,3.584789 -2.58177,4.922117 -4.123415,5.479338 z"
     id="path1-3"
     style="stroke-width:0.18574" /><g
     id="g1"
     transform="matrix(0.22110692,0,0,0.22110692,89.065542,40.257289)">
</g><g
     id="g2"
     transform="matrix(0.22110692,0,0,0.22110692,89.065542,40.257289)">
</g><g
     id="g3"
     transform="matrix(0.22110692,0,0,0.22110692,89.065542,40.257289)">
</g><g
     id="g4"
     transform="matrix(0.22110692,0,0,0.22110692,89.065542,40.257289)">
</g><g
     id="g5"
     transform="matrix(0.22110692,0,0,0.22110692,89.065542,40.257289)">
</g><g
     id="g6"
     transform="matrix(0.22110692,0,0,0.22110692,89.065542,40.257289)">
</g></svg>
