<?xml version="1.0" encoding="UTF-8" standalone="no"?>
<svg
   viewBox="0 0 128 128"
   version="1.1"
   id="svg5"
   sodipodi:docname="sass-original.svg"
   inkscape:export-filename="angularmaterial-orig.png"
   inkscape:export-xdpi="96"
   inkscape:export-ydpi="96"
   xml:space="preserve"
   inkscape:version="1.4.2 (ebf0e940d0, 2025-05-08)"
   xmlns:inkscape="http://www.inkscape.org/namespaces/inkscape"
   xmlns:sodipodi="http://sodipodi.sourceforge.net/DTD/sodipodi-0.dtd"
   xmlns="http://www.w3.org/2000/svg"
   xmlns:svg="http://www.w3.org/2000/svg"><defs
     id="defs5"><linearGradient
       id="swatch6"
       inkscape:swatch="solid"><stop
         style="stop-color:#00ff00;stop-opacity:1;"
         offset="0"
         id="stop6" /></linearGradient><clipPath
       id="_clipPath_2GFXlhoLK0PQwPMcNgecx9cHDe99PPCk"><rect
         width="179"
         height="195"
         id="rect1"
         x="0"
         y="0" /></clipPath></defs><sodipodi:namedview
     id="namedview5"
     pagecolor="#ffffff"
     bordercolor="#000000"
     borderopacity="0.25"
     inkscape:showpageshadow="2"
     inkscape:pageopacity="0.0"
     inkscape:pagecheckerboard="0"
     inkscape:deskcolor="#d1d1d1"
     inkscape:zoom="4.4415145"
     inkscape:cx="84.768383"
     inkscape:cy="71.709774"
     inkscape:window-width="1920"
     inkscape:window-height="1080"
     inkscape:window-x="0"
     inkscape:window-y="0"
     inkscape:window-maximized="1"
     inkscape:current-layer="svg5" /><style
     type="text/css"
     id="style1">
	.st0{fill:#FF4438;}
</style><path
     fill="#cd6799"
     d="m 107.51378,69.248236 c -4.22314,0.02211 -7.893506,1.039203 -10.966891,2.54273 -1.12764,-2.23318 -2.25529,-4.223142 -2.45429,-5.682447 -0.2211,-1.70252 -0.48643,-2.741725 -0.2211,-4.775908 0.26532,-2.034183 1.4593,-4.930687 1.43719,-5.151791 -0.0221,-0.221111 -0.26533,-1.260308 -2.6975,-1.282426 -2.43217,-0.02213 -4.53269,0.464325 -4.77591,1.105542 -0.24322,0.641209 -0.70754,2.100512 -1.01709,3.604041 -0.4201,2.211068 -4.86435,10.104584 -7.40708,14.239284 -0.8181,-1.614081 -1.52564,-3.029165 -1.68041,-4.15681 -0.22111,-1.702524 -0.48644,-2.741726 -0.22111,-4.775908 0.26533,-2.034184 1.45931,-4.930687 1.4372,-5.151791 -0.0221,-0.221111 -0.26533,-1.260309 -2.69751,-1.282426 -2.43218,-0.02212 -4.53269,0.464325 -4.77591,1.105542 -0.24322,0.641209 -0.50855,2.144731 -1.01709,3.604041 -0.50855,1.459303 -6.4121,14.637273 -7.95985,18.042323 -0.79599,1.74674 -1.48142,3.13971 -1.96786,4.09047 0,0 0,0 0,0 0,0 -0.0221,0.0663 -0.0884,0.1769 -0.4201,0.81809 -0.66331,1.2603 -0.66331,1.2603 0,0 0,0 0,0.0221 -0.33167,0.59699 -0.68544,1.14976 -0.86232,1.14976 -0.13267,0 -0.37588,-1.59197 0.0442,-3.75882 0.88443,-4.57691 2.98494,-11.696555 2.96283,-11.939772 0,-0.132664 0.39799,-1.370863 -1.37086,-2.012073 -1.72464,-0.64121 -2.34374,0.420103 -2.49851,0.420103 -0.15478,0 -0.26533,0.375882 -0.26533,0.375882 0,0 1.92363,-8.004067 -3.67037,-8.004067 -3.49349,0 -8.31362,3.825145 -10.70158,7.274414 -1.50352,0.818096 -4.70958,2.56484 -8.13673,4.444249 -1.30453,0.729653 -2.65329,1.459306 -3.9136,2.144734 -0.0885,-0.08844 -0.17688,-0.198993 -0.26533,-0.287436 -6.76586,-7.230202 -19.280519,-12.337767 -18.749858,-22.044365 0.198994,-3.537713 1.415084,-12.824198 24.034318,-24.100656 18.61721,-9.175937 33.43137,-6.633202 35.99621,-0.994978 3.67037,8.048294 -7.93774,22.995122 -27.17404,25.16197 -7.34075,0.818094 -11.18801,-2.012073 -12.16088,-3.073388 -1.0171,-1.105534 -1.17187,-1.17187 -1.54775,-0.950759 -0.6191,0.33166 -0.22111,1.326638 0,1.901518 0.57487,1.50353 2.94072,4.156812 6.94275,5.46134 3.53772,1.149753 12.13877,1.79097 22.55291,-2.233177 11.65234,-4.510581 20.76194,-17.047347 18.08655,-27.549922 -2.67539,-10.657327 -20.36394,-14.172923 -37.10173,-8.225148 -9.94982,3.537705 -20.73983,9.109601 -28.500685,16.361911 -9.2201561,8.623166 -10.6794661,16.11869 -10.0824761,19.258414 2.144739,11.143786 17.5116711,18.396093 23.6584411,23.768986 -0.30955,0.17689 -0.59699,0.33167 -0.8402,0.46433 -3.07339,1.52564 -14.792057,7.6503 -17.7106699,14.12873 -3.3166012,7.340748 0.530653,12.603088 3.0733879,13.310628 7.893512,2.18896 16.008142,-1.74674 20.363952,-8.247278 4.3558,-6.50055 3.82514,-14.94683 1.81307,-18.8162 -0.0221,-0.0442 -0.0443,-0.0884 -0.0884,-0.13266 0.79598,-0.46433 1.61407,-0.95076 2.41006,-1.41509 1.56986,-0.92865 3.11761,-1.79096 4.44425,-2.498506 -0.75176,2.056296 -1.30453,4.510586 -1.56986,8.048296 -0.33166,4.15681 1.37086,9.55181 3.60404,11.67444 0.99498,0.92865 2.16685,0.95076 2.91862,0.95076 2.60905,0 3.78092,-2.16685 5.08545,-4.73169 1.59198,-3.13971 3.02917,-6.78798 3.02917,-6.78798 0,0 -1.79097,9.86137 3.07339,9.86137 1.76885,0 3.55981,-2.29951 4.3558,-3.47138 0,0.0221 0,0.0221 0,0.0221 0,0 0.0442,-0.0663 0.13266,-0.2211 0.17689,-0.28744 0.28744,-0.46433 0.28744,-0.46433 0,0 0,-0.0221 0,-0.0443 0.70755,-1.2382 2.29952,-4.04626 4.66536,-8.71161 3.05128,-6.014112 5.992,-13.531747 5.992,-13.531747 0,0 0.26532,1.835187 1.17186,4.886463 0.53066,1.790966 1.6362,3.758814 2.52062,5.660334 -0.70754,0.99498 -1.14975,1.54775 -1.14975,1.54775 0,0 0,0 0.0221,0.0221 -0.57488,0.75177 -1.19397,1.56986 -1.87941,2.36585 -2.41006,2.87438 -5.28446,6.16888 -5.68244,7.11964 -0.46433,1.12765 -0.35378,1.94574 0.53065,2.60906 0.64121,0.48643 1.79096,0.55277 2.96283,0.48643 2.16685,-0.15477 3.69249,-0.68543 4.44425,-1.01709 1.17187,-0.4201 2.54273,-1.06131 3.82515,-2.01207 2.36584,-1.74674 3.80304,-4.24525 3.67038,-7.53975 -0.0663,-1.81307 -0.66332,-3.62615 -1.39298,-5.32867 0.22111,-0.30955 0.42011,-0.6191 0.64121,-0.928651 3.73671,-5.46134 6.63321,-11.453338 6.63321,-11.453338 0,0 0.26533,1.835188 1.17187,4.886463 0.44221,1.547749 1.34875,3.228161 2.14473,4.864353 -3.5156,2.852283 -5.68245,6.168883 -6.45632,8.335733 -1.39298,4.02414 -0.30955,5.83722 1.74675,6.25732 0.92865,0.199 2.25529,-0.24321 3.22815,-0.66332 1.2382,-0.39799 2.69751,-1.08342 4.09049,-2.10052 2.36584,-1.74674 4.643225,-4.17892 4.510575,-7.47341 -0.0663,-1.50352 -0.46433,-2.984941 -1.017095,-4.422136 2.984931,-1.238198 6.832201,-1.92363 11.740771,-1.348752 10.52469,1.238198 12.6031,7.805078 12.2051,10.568908 -0.39799,2.76384 -2.60906,4.26737 -3.33871,4.73169 -0.72965,0.46433 -0.97288,0.6191 -0.90654,0.95076 0.0884,0.48644 0.44222,0.46433 1.06132,0.37588 0.86231,-0.15477 5.52767,-2.23318 5.72666,-7.31864 0.33166,-6.500546 -5.85933,-13.598078 -16.80413,-13.531746 z M 26.323339,96.621272 c -3.49349,3.803038 -8.35784,5.240238 -10.45836,4.024148 -2.25529,-1.304528 -1.37086,-6.920648 2.91861,-10.944788 2.60906,-2.45429 5.96988,-4.7317 8.20307,-6.12467 0.50854,-0.30955 1.26031,-0.75176 2.16685,-1.30453 0.15477,-0.0884 0.24321,-0.13266 0.24321,-0.13266 v 0 c 0.17688,-0.11056 0.35378,-0.22111 0.53066,-0.33166 1.56986,5.74878 0.0663,10.81212 -3.60404,14.81416 z m 25.42729,-17.29056 c -1.21609,2.96283 -3.75881,10.5468 -5.30656,10.1267 -1.32665,-0.35377 -2.14474,-6.10255 -0.26533,-11.785 0.95076,-2.852281 2.96283,-6.257327 4.1347,-7.583969 1.90152,-2.122627 4.00203,-2.830169 4.51058,-1.967852 0.64121,1.127645 -2.32162,9.352821 -3.07339,11.210121 z m 20.98305,10.03825 c -0.50854,0.26533 -0.99499,0.44221 -1.21609,0.30955 -0.15477,-0.0884 0.2211,-0.44221 0.2211,-0.44221 0,0 2.63118,-2.83017 3.67038,-4.11259 0.59699,-0.75177 1.30453,-1.63619 2.0563,-2.63117 0,0.0884 0,0.19899 0,0.28744 0,3.38293 -3.27239,5.66034 -4.73169,6.58898 z m 16.18503,-3.69248 c -0.37589,-0.26533 -0.30955,-1.14976 0.95076,-3.91359 0.48643,-1.08343 1.63618,-2.89651 3.60404,-4.64325 0.22111,0.70754 0.37588,1.39297 0.35376,2.03418 -0.0221,4.26737 -3.07337,5.85934 -4.90856,6.52266 z"
     id="path1-3"
     style="stroke-width:0.221107" /><g
     id="g1"
     transform="matrix(0.22110692,0,0,0.22110692,89.065542,40.257289)">
</g><g
     id="g2"
     transform="matrix(0.22110692,0,0,0.22110692,89.065542,40.257289)">
</g><g
     id="g3"
     transform="matrix(0.22110692,0,0,0.22110692,89.065542,40.257289)">
</g><g
     id="g4"
     transform="matrix(0.22110692,0,0,0.22110692,89.065542,40.257289)">
</g><g
     id="g5"
     transform="matrix(0.22110692,0,0,0.22110692,89.065542,40.257289)">
</g><g
     id="g6"
     transform="matrix(0.22110692,0,0,0.22110692,89.065542,40.257289)">
</g></svg>
