<?xml version="1.0" encoding="UTF-8" standalone="no"?>
<svg
   viewBox="0 0 128 128"
   version="1.1"
   id="svg5"
   sodipodi:docname="tmux-original.svg"
   inkscape:export-filename="angularmaterial-orig.png"
   inkscape:export-xdpi="96"
   inkscape:export-ydpi="96"
   xml:space="preserve"
   inkscape:version="1.4.2 (ebf0e940d0, 2025-05-08)"
   xmlns:inkscape="http://www.inkscape.org/namespaces/inkscape"
   xmlns:sodipodi="http://sodipodi.sourceforge.net/DTD/sodipodi-0.dtd"
   xmlns="http://www.w3.org/2000/svg"
   xmlns:svg="http://www.w3.org/2000/svg"><defs
     id="defs5"><linearGradient
       id="swatch6"
       inkscape:swatch="solid"><stop
         style="stop-color:#00ff00;stop-opacity:1;"
         offset="0"
         id="stop6" /></linearGradient><clipPath
       id="_clipPath_2GFXlhoLK0PQwPMcNgecx9cHDe99PPCk"><rect
         width="179"
         height="195"
         id="rect1"
         x="0"
         y="0" /></clipPath></defs><sodipodi:namedview
     id="namedview5"
     pagecolor="#ffffff"
     bordercolor="#000000"
     borderopacity="0.25"
     inkscape:showpageshadow="2"
     inkscape:pageopacity="0.0"
     inkscape:pagecheckerboard="0"
     inkscape:deskcolor="#d1d1d1"
     inkscape:zoom="4.4415145"
     inkscape:cx="37.262065"
     inkscape:cy="81.841454"
     inkscape:window-width="1920"
     inkscape:window-height="1080"
     inkscape:window-x="0"
     inkscape:window-y="0"
     inkscape:window-maximized="1"
     inkscape:current-layer="svg5" /><style
     type="text/css"
     id="style1">
	.st0{fill:#FF4438;}
</style><g
     id="vlpa"
     style="fill:none;fill-rule:evenodd"
     transform="matrix(0.20396124,0,0,0.20396124,2.450662,46.197929)"><g
       id="vlpb"><g
         id="vlpc"
         fill="#1bb91f"><path
           d="m 0,116 h 160 v 29 c 0,8.286 -6.722,15 -15,15 H 15 C 6.717,160 0,153.293 0,145 Z m 0,0 h 160 v 30 H 0 Z"
           id="path1" /></g><path
         id="vlpd"
         d="M 83,70 V 0 h -6 v 146 h 6 V 76 h 77 V 70 Z M 0,15.01 C 0,6.722 6.722,0 15,0 h 130 c 8.283,0 15,6.725 15,15.01 v 131 H 0 Z"
         fill="#3c3c3c" /></g><path
       id="vlpe"
       d="m 241.8,147.8 c -10.92,0 -19.13,-2.867 -24.65,-8.602 -5.52,-5.735 -8.272,-14.23 -8.272,-25.48 v -51.78 h -19.85 v -14.89 h 19.85 v -33.09 h 16.54 v 33.09 h 36.4 v 14.89 h -36.4 v 51.95 c 0,6.507 1.599,11.28 4.798,14.31 3.198,3.033 7.389,4.549 12.57,4.549 2.426,0 5.128,-0.2757 8.106,-0.8272 2.978,-0.5514 6.011,-1.379 9.099,-2.481 l 3.309,14.56 c -3.75,1.323 -7.417,2.288 -11,2.895 -3.584,0.6066 -7.086,0.9099 -10.5,0.9099 z m 52.93,-1.489 h -16.54 v -99.26 h 16.54 v 16.54 c 0,0 10.06,-9.926 14.97,-13.23 4.908,-3.309 10.67,-4.963 17.29,-4.963 5.845,0 10.84,1.627 14.97,4.88 4.13,3.253 7.086,7.693 8.851,13.32 0,0 11.14,-9.926 16.21,-13.23 5.07,-3.304 11.08,-4.963 18.03,-4.963 7.72,0 13.9,2.84 18.53,8.52 4.632,5.68 6.948,13.32 6.948,22.91 v 69.48 h -16.54 v -66.83 c 0,-6.617 -1.268,-11.33 -3.805,-14.14 -2.537,-2.812 -6.176,-4.219 -10.92,-4.219 -4.742,0 -9.457,1.434 -14.14,4.301 -4.687,2.868 -8.851,6.672 -12.49,11.41 v 69.48 h -16.54 v -66.83 c 0,-6.617 -1.268,-11.33 -3.805,-14.14 -2.537,-2.812 -6.176,-4.219 -10.92,-4.219 -4.742,0 -9.457,1.434 -14.14,4.301 -4.687,2.868 -8.851,6.672 -12.49,11.41 v 69.48 z m 144.2,-7.61 c -5.845,-6.176 -8.768,-14.39 -8.768,-24.65 v -67 h 16.54 v 63.69 c 0,7.058 1.654,12.41 4.963,16.05 3.309,3.64 8.161,5.459 14.56,5.459 5.073,0 10.12,-1.461 15.14,-4.384 5.02,-2.923 10.01,-7.251 14.97,-12.99 v -67.83 h 16.54 v 99.26 h -16.54 v -16.54 c 0,0 -11.22,9.926 -16.46,13.23 -5.239,3.309 -11.11,4.963 -17.62,4.963 -9.705,0 -17.48,-3.088 -23.33,-9.264 z m 149.7,7.61 -24.15,-37.39 -22.66,37.39 h -18.36 l 33.09,-49.8 -31.93,-49.46 h 18.53 l 23,35.73 23.33,-35.73 h 18.36 l -33.42,48.47 32.76,50.79 h -18.53 z"
       fill="#1bb91f" /></g></svg>
